<svg id="svg" version="1.1" xmlns="http://www.w3.org/2000/svg" xmlns:xlink="http://www.w3.org/1999/xlink" width="400" height="400" viewBox="0, 0, 400,400"><g id="svgg"><path id="path0" d="M62.044 10.558 C 61.061 11.103,60.039 12.596,60.014 13.524 C 60.006 13.812,60.179 13.936,60.399 13.801 C 60.663 13.638,60.666 13.902,60.407 14.582 C 60.178 15.183,60.006 22.198,59.991 31.504 L 59.966 47.400 43.554 47.291 C 34.527 47.231,27.231 47.327,27.340 47.503 C 27.600 47.924,25.919 47.844,25.203 47.402 C 24.861 47.191,24.590 47.231,24.498 47.507 C 24.416 47.753,24.088 47.855,23.769 47.733 C 23.450 47.611,22.918 47.736,22.586 48.012 C 22.083 48.429,22.024 48.403,22.234 47.857 C 22.372 47.495,22.781 47.186,23.143 47.168 C 23.593 47.147,23.635 47.071,23.277 46.927 C 22.989 46.812,22.373 47.051,21.908 47.459 C 21.443 47.867,21.194 47.975,21.355 47.700 C 21.788 46.959,21.306 47.094,20.447 47.953 C 19.938 48.462,19.284 48.658,18.427 48.558 C 17.498 48.450,17.241 48.543,17.464 48.905 C 17.632 49.177,17.236 49.054,16.585 48.630 C 15.632 48.011,15.507 47.991,15.949 48.530 C 16.587 49.309,16.025 49.436,15.199 48.700 C 14.722 48.275,14.718 48.304,15.168 48.900 C 15.524 49.370,15.550 49.600,15.249 49.600 C 15.002 49.600,14.800 49.750,14.800 49.933 C 14.800 50.117,15.062 50.267,15.382 50.267 C 15.703 50.267,15.891 50.147,15.800 50.000 C 15.709 49.853,15.888 49.733,16.196 49.733 C 16.646 49.733,16.665 49.899,16.294 50.567 C 16.040 51.025,15.877 51.670,15.933 52.000 C 16.020 52.519,15.981 52.521,15.643 52.019 C 15.428 51.700,15.359 51.267,15.488 51.057 C 15.621 50.843,15.510 50.808,15.235 50.979 C 14.966 51.145,14.831 51.504,14.936 51.777 C 15.040 52.049,14.965 52.526,14.769 52.836 C 14.474 53.303,14.411 53.306,14.406 52.851 C 14.402 52.455,14.260 52.418,13.895 52.721 C 13.521 53.031,13.272 52.888,12.933 52.170 C 12.495 51.243,12.885 50.767,13.400 51.600 C 13.727 52.129,14.400 52.113,14.400 51.576 C 14.400 51.343,14.220 51.264,14.000 51.400 C 13.780 51.536,13.600 51.457,13.600 51.224 C 13.600 50.991,13.780 50.800,14.000 50.800 C 14.220 50.800,14.400 50.609,14.400 50.376 C 14.400 50.143,14.235 50.055,14.034 50.179 C 13.833 50.303,13.592 50.269,13.500 50.102 C 13.407 49.936,13.386 50.025,13.453 50.300 C 13.520 50.575,13.305 50.800,12.975 50.800 C 12.645 50.800,12.271 51.070,12.145 51.400 C 11.839 52.197,11.216 52.159,10.522 51.300 C 10.005 50.661,9.992 50.675,10.367 51.453 C 10.810 52.374,12.000 53.037,12.000 52.364 C 12.000 52.138,12.204 52.079,12.454 52.234 C 12.756 52.420,12.601 52.747,11.992 53.206 C 11.488 53.586,11.170 54.146,11.287 54.449 C 11.561 55.163,11.476 55.825,11.125 55.708 C 10.973 55.658,10.918 55.973,11.002 56.408 C 11.094 56.889,10.937 57.200,10.601 57.200 C 10.296 57.200,9.919 57.408,9.762 57.662 C 9.576 57.962,9.653 58.014,9.981 57.812 C 10.352 57.582,10.414 57.725,10.216 58.350 C 10.053 58.862,10.120 59.200,10.382 59.200 C 10.650 59.200,10.589 59.550,10.223 60.109 C 9.615 61.037,9.780 62.800,10.475 62.800 C 10.685 62.800,10.574 63.083,10.229 63.429 C 9.883 63.774,9.603 64.359,9.606 64.729 C 9.611 65.313,9.668 65.322,10.044 64.800 C 10.404 64.300,10.436 64.321,10.240 64.928 C 9.761 66.404,9.966 323.676,10.445 324.255 C 10.747 324.618,10.757 324.800,10.476 324.800 C 9.842 324.800,9.502 326.269,9.944 327.095 C 10.195 327.565,10.194 328.067,9.942 328.518 C 9.654 329.033,9.689 329.188,10.076 329.108 C 10.386 329.044,10.652 329.449,10.727 330.100 C 10.796 330.705,11.051 331.200,11.293 331.200 C 11.535 331.200,11.618 331.316,11.476 331.457 C 11.335 331.598,10.976 331.512,10.679 331.265 C 10.251 330.911,10.145 331.004,10.169 331.708 C 10.208 332.819,10.762 333.246,11.800 332.965 C 12.303 332.828,12.421 332.873,12.118 333.086 C 11.615 333.440,11.633 335.083,12.149 335.917 C 12.517 336.513,13.200 336.551,13.200 335.976 C 13.200 335.743,13.020 335.664,12.800 335.800 C 12.227 336.154,12.306 335.630,12.910 335.071 C 13.536 334.492,14.544 334.243,14.234 334.745 C 13.942 335.217,14.980 336.086,15.370 335.697 C 15.860 335.206,15.438 336.540,14.929 337.090 C 14.370 337.694,13.846 337.773,14.200 337.200 C 14.336 336.980,14.257 336.800,14.024 336.800 C 13.449 336.800,13.487 337.483,14.083 337.851 C 14.917 338.367,16.560 338.385,16.914 337.882 C 17.127 337.579,17.172 337.697,17.035 338.200 C 16.754 339.238,17.181 339.792,18.292 339.831 C 18.996 339.855,19.089 339.749,18.735 339.321 C 18.488 339.024,18.402 338.665,18.543 338.524 C 18.684 338.382,18.800 338.465,18.800 338.707 C 18.800 338.949,19.295 339.204,19.900 339.273 C 20.541 339.347,20.956 339.616,20.894 339.917 C 20.817 340.295,20.981 340.331,21.505 340.051 C 21.963 339.806,22.471 339.808,22.918 340.058 C 23.715 340.504,25.200 340.156,25.200 339.524 C 25.200 339.250,25.399 339.267,25.766 339.572 C 26.176 339.912,30.947 340.063,43.066 340.121 L 59.800 340.200 59.879 356.934 C 59.937 369.053,60.088 373.824,60.428 374.234 C 60.733 374.601,60.750 374.800,60.476 374.800 C 59.842 374.800,59.502 376.269,59.944 377.095 C 60.195 377.565,60.194 378.067,59.942 378.518 C 59.654 379.033,59.689 379.188,60.076 379.108 C 60.386 379.044,60.652 379.449,60.727 380.100 C 60.796 380.705,61.051 381.200,61.293 381.200 C 61.535 381.200,61.618 381.316,61.476 381.457 C 61.335 381.598,60.976 381.512,60.679 381.265 C 60.251 380.911,60.145 381.004,60.169 381.708 C 60.208 382.819,60.762 383.246,61.800 382.965 C 62.303 382.828,62.421 382.873,62.118 383.086 C 61.615 383.440,61.633 385.083,62.149 385.917 C 62.517 386.513,63.200 386.551,63.200 385.976 C 63.200 385.743,63.020 385.664,62.800 385.800 C 62.227 386.154,62.306 385.630,62.910 385.071 C 63.536 384.492,64.544 384.243,64.234 384.745 C 63.942 385.217,64.980 386.086,65.370 385.697 C 65.860 385.206,65.438 386.540,64.929 387.090 C 64.370 387.694,63.846 387.773,64.200 387.200 C 64.336 386.980,64.257 386.800,64.024 386.800 C 63.449 386.800,63.487 387.483,64.083 387.851 C 64.917 388.367,66.560 388.385,66.914 387.882 C 67.127 387.579,67.172 387.697,67.035 388.200 C 66.754 389.238,67.181 389.792,68.292 389.831 C 68.996 389.855,69.089 389.749,68.735 389.321 C 68.488 389.024,68.402 388.665,68.543 388.524 C 68.684 388.382,68.800 388.465,68.800 388.707 C 68.800 388.949,69.295 389.204,69.900 389.273 C 70.551 389.348,70.956 389.614,70.892 389.924 C 70.812 390.311,70.967 390.346,71.482 390.058 C 71.933 389.806,72.435 389.805,72.905 390.056 C 73.731 390.498,75.200 390.158,75.200 389.524 C 75.200 389.242,75.380 389.252,75.743 389.553 C 76.306 390.020,373.273 390.250,374.027 389.783 C 374.223 389.662,374.759 389.764,375.219 390.010 C 375.872 390.360,376.265 390.318,377.027 389.819 C 377.562 389.469,378.000 389.360,378.000 389.578 C 378.000 389.796,378.300 389.860,378.666 389.719 C 379.044 389.574,379.229 389.629,379.095 389.846 C 378.965 390.057,379.179 390.229,379.571 390.229 C 379.962 390.229,380.264 389.957,380.241 389.624 C 380.192 388.904,381.708 388.779,382.000 389.480 C 382.320 390.248,384.758 388.898,384.689 387.991 C 384.659 387.586,384.488 387.345,384.310 387.455 C 384.133 387.565,384.083 387.810,384.200 388.000 C 384.433 388.378,383.726 388.928,382.833 389.063 C 382.522 389.110,382.826 388.589,383.510 387.906 C 384.617 386.798,384.829 386.725,385.453 387.231 C 385.966 387.648,386.069 387.659,385.837 387.273 C 385.613 386.902,385.738 386.784,386.260 386.873 C 386.791 386.964,386.964 386.791,386.873 386.260 C 386.784 385.738,386.902 385.613,387.273 385.837 C 387.659 386.069,387.648 385.966,387.231 385.453 C 386.725 384.829,386.798 384.617,387.906 383.510 C 388.589 382.826,389.110 382.522,389.063 382.833 C 388.928 383.726,388.378 384.433,388.000 384.200 C 387.810 384.083,387.565 384.133,387.455 384.310 C 387.345 384.488,387.586 384.659,387.991 384.689 C 388.898 384.758,390.248 382.320,389.480 382.000 C 388.779 381.708,388.904 380.192,389.624 380.241 C 389.957 380.264,390.229 379.962,390.229 379.571 C 390.229 379.179,390.057 378.965,389.846 379.095 C 389.629 379.229,389.574 379.044,389.719 378.666 C 389.860 378.300,389.796 378.000,389.578 378.000 C 389.360 378.000,389.469 377.562,389.819 377.027 C 390.318 376.265,390.360 375.872,390.010 375.219 C 389.764 374.759,389.662 374.223,389.783 374.027 C 390.250 373.272,390.021 113.907,389.553 113.343 C 389.252 112.980,389.242 112.800,389.524 112.800 C 390.158 112.800,390.498 111.331,390.056 110.505 C 389.798 110.023,389.814 109.514,390.105 108.990 C 390.497 108.282,390.472 108.257,389.871 108.749 C 389.219 109.282,388.898 108.835,389.500 108.233 C 390.051 107.683,389.864 106.000,389.252 106.000 C 388.930 106.000,388.785 105.882,388.930 105.737 C 389.336 105.331,388.369 104.374,387.855 104.673 C 387.605 104.819,387.715 104.577,388.101 104.136 C 388.486 103.696,388.756 103.258,388.701 103.163 C 388.645 103.068,388.798 103.215,389.040 103.489 C 389.281 103.763,389.596 103.870,389.740 103.727 C 390.139 103.327,390.049 102.723,389.628 102.983 C 389.423 103.109,389.142 103.030,389.004 102.807 C 388.639 102.216,388.000 102.308,388.000 102.951 C 388.000 103.254,387.695 103.749,387.323 104.051 C 386.739 104.525,386.698 104.518,387.021 104.000 C 387.226 103.670,387.404 102.998,387.416 102.507 L 387.437 101.614 386.431 102.507 C 385.877 102.998,385.659 103.093,385.947 102.718 C 386.559 101.918,386.173 101.048,385.347 101.365 C 384.988 101.503,384.634 101.215,384.397 100.592 C 384.190 100.047,383.915 99.600,383.786 99.600 C 383.658 99.600,383.681 99.808,383.838 100.062 C 384.019 100.355,383.947 100.415,383.642 100.226 C 383.275 99.999,383.271 99.796,383.628 99.367 C 384.014 98.901,383.882 98.829,382.857 98.949 C 382.157 99.030,381.719 98.930,381.850 98.719 C 381.977 98.514,382.333 98.442,382.640 98.560 C 382.948 98.678,383.200 98.601,383.200 98.387 C 383.200 98.039,382.888 97.935,382.145 98.034 C 382.004 98.053,381.737 97.828,381.551 97.534 C 381.320 97.169,381.210 97.151,381.206 97.477 C 381.203 97.745,380.833 97.883,380.363 97.793 C 379.770 97.679,379.590 97.796,379.743 98.196 C 380.031 98.946,378.847 98.526,377.884 97.536 C 377.491 97.131,376.961 96.800,376.708 96.800 C 376.454 96.800,376.596 97.085,377.024 97.433 C 377.759 98.032,377.760 98.053,377.049 97.826 C 376.636 97.694,376.047 97.795,375.740 98.050 C 375.293 98.421,375.232 98.382,375.434 97.857 C 375.603 97.416,375.474 97.200,375.043 97.200 C 374.689 97.200,374.400 97.335,374.400 97.500 C 374.400 97.665,373.967 97.800,373.438 97.800 C 372.909 97.800,372.562 97.661,372.667 97.491 C 372.772 97.321,365.467 97.231,356.435 97.291 L 340.011 97.400 340.022 80.661 C 340.031 68.496,339.907 63.769,339.568 63.361 C 339.264 62.995,339.249 62.800,339.524 62.800 C 340.158 62.800,340.498 61.331,340.056 60.505 C 339.798 60.023,339.814 59.514,340.105 58.990 C 340.497 58.282,340.472 58.257,339.871 58.749 C 339.219 59.282,338.898 58.835,339.500 58.233 C 340.024 57.710,339.867 56.000,339.295 56.000 C 338.997 56.000,338.851 55.840,338.972 55.645 C 339.272 55.161,338.214 54.334,337.767 54.703 C 337.570 54.867,337.722 54.625,338.105 54.168 C 338.488 53.710,338.756 53.258,338.701 53.163 C 338.645 53.068,338.798 53.215,339.040 53.489 C 339.281 53.763,339.596 53.870,339.740 53.727 C 340.139 53.327,340.049 52.723,339.628 52.983 C 339.423 53.109,339.142 53.030,339.004 52.807 C 338.639 52.216,338.000 52.308,338.000 52.951 C 338.000 53.254,337.695 53.749,337.323 54.051 C 336.739 54.525,336.698 54.518,337.021 54.000 C 337.226 53.670,337.404 52.998,337.416 52.507 L 337.437 51.614 336.431 52.507 C 335.877 52.998,335.659 53.093,335.947 52.718 C 336.559 51.918,336.173 51.048,335.347 51.365 C 334.988 51.503,334.634 51.215,334.397 50.592 C 334.190 50.047,333.915 49.600,333.786 49.600 C 333.658 49.600,333.681 49.808,333.838 50.062 C 334.019 50.355,333.947 50.415,333.642 50.226 C 333.275 49.999,333.271 49.796,333.628 49.367 C 334.014 48.901,333.882 48.829,332.857 48.949 C 332.157 49.030,331.719 48.930,331.850 48.719 C 331.977 48.514,332.333 48.442,332.640 48.560 C 332.948 48.678,333.200 48.601,333.200 48.387 C 333.200 48.039,332.888 47.935,332.145 48.034 C 332.004 48.053,331.737 47.828,331.551 47.534 C 331.320 47.169,331.210 47.151,331.206 47.477 C 331.203 47.745,330.833 47.883,330.363 47.793 C 329.770 47.679,329.590 47.796,329.743 48.196 C 330.031 48.946,328.847 48.526,327.884 47.536 C 327.491 47.131,326.961 46.800,326.708 46.800 C 326.454 46.800,326.596 47.085,327.024 47.433 C 327.759 48.032,327.760 48.053,327.049 47.826 C 326.636 47.694,326.047 47.795,325.740 48.050 C 325.293 48.421,325.232 48.382,325.434 47.857 C 325.603 47.416,325.474 47.200,325.043 47.200 C 324.689 47.200,324.400 47.335,324.400 47.500 C 324.400 47.665,323.967 47.800,323.438 47.800 C 322.909 47.800,322.562 47.661,322.667 47.491 C 322.772 47.321,315.473 47.231,306.446 47.291 L 290.034 47.400 290.009 31.504 C 289.994 22.198,289.822 15.183,289.593 14.582 C 289.334 13.902,289.337 13.638,289.601 13.801 C 290.173 14.154,290.093 13.340,289.430 12.058 C 289.116 11.452,288.388 10.741,287.811 10.478 C 286.533 9.896,285.868 9.863,286.199 10.399 C 286.363 10.664,286.094 10.664,285.397 10.399 C 284.022 9.876,265.978 9.876,264.603 10.399 C 263.906 10.664,263.637 10.664,263.801 10.399 C 264.132 9.863,263.467 9.896,262.189 10.478 C 261.612 10.741,260.884 11.452,260.570 12.058 C 259.907 13.340,259.827 14.154,260.399 13.801 C 260.663 13.638,260.666 13.902,260.407 14.582 C 260.178 15.183,260.006 22.198,259.991 31.504 L 259.966 47.400 175.000 47.400 L 90.034 47.400 90.009 31.504 C 89.994 22.198,89.822 15.183,89.593 14.582 C 89.334 13.902,89.337 13.638,89.601 13.801 C 90.137 14.132,90.104 13.467,89.522 12.189 C 89.259 11.612,88.548 10.884,87.942 10.570 C 86.660 9.907,85.846 9.827,86.199 10.399 C 86.363 10.664,86.094 10.664,85.397 10.399 C 84.022 9.876,65.978 9.876,64.603 10.399 C 63.906 10.664,63.637 10.664,63.801 10.399 C 64.146 9.840,63.183 9.927,62.044 10.558 M335.205 49.191 C 334.609 50.305,334.792 50.488,335.779 49.766 C 336.346 49.351,336.437 49.077,336.116 48.756 C 335.794 48.434,335.547 48.552,335.205 49.191 M337.600 50.400 C 338.167 51.460,339.068 51.415,339.608 50.300 C 340.002 49.488,339.989 49.468,339.478 50.100 C 338.784 50.958,338.000 51.011,338.000 50.200 C 338.000 49.870,337.814 49.600,337.586 49.600 C 337.305 49.600,337.310 49.858,337.600 50.400 M59.890 87.400 C 59.939 92.680,59.987 97.360,59.996 97.800 C 60.010 98.470,60.078 98.502,60.418 98.000 C 60.720 97.555,60.758 97.684,60.569 98.500 C 60.428 99.106,60.484 99.600,60.692 99.600 C 60.901 99.600,61.281 100.060,61.537 100.623 C 61.794 101.185,62.181 101.536,62.397 101.402 C 62.616 101.266,62.692 101.416,62.568 101.739 C 62.446 102.058,62.538 102.438,62.773 102.583 C 63.008 102.728,63.200 102.673,63.200 102.459 C 63.200 102.038,63.936 102.057,64.638 102.496 C 65.209 102.854,84.791 102.854,85.362 102.496 C 86.064 102.057,86.800 102.038,86.800 102.459 C 86.800 102.673,86.992 102.728,87.227 102.583 C 87.462 102.438,87.554 102.058,87.432 101.739 C 87.308 101.416,87.384 101.266,87.603 101.402 C 87.819 101.536,88.206 101.185,88.463 100.623 C 88.719 100.060,89.099 99.600,89.308 99.600 C 89.516 99.600,89.572 99.106,89.431 98.500 C 89.242 97.684,89.280 97.555,89.582 98.000 C 89.922 98.502,89.990 98.470,90.004 97.800 C 90.013 97.360,90.061 92.680,90.110 87.400 L 90.200 77.800 175.000 77.800 L 259.800 77.800 259.890 87.400 C 259.939 92.680,259.987 97.360,259.996 97.800 C 260.010 98.470,260.078 98.502,260.418 98.000 C 260.720 97.555,260.758 97.684,260.569 98.500 C 260.428 99.106,260.484 99.600,260.692 99.600 C 260.901 99.600,261.281 100.060,261.537 100.623 C 261.794 101.185,262.181 101.536,262.397 101.402 C 262.616 101.266,262.692 101.416,262.568 101.739 C 262.446 102.058,262.538 102.438,262.773 102.583 C 263.008 102.728,263.200 102.673,263.200 102.459 C 263.200 102.038,263.936 102.057,264.638 102.496 C 265.209 102.854,284.791 102.854,285.362 102.496 C 286.064 102.057,286.800 102.038,286.800 102.459 C 286.800 102.673,286.992 102.728,287.227 102.583 C 287.462 102.438,287.554 102.058,287.432 101.739 C 287.308 101.416,287.384 101.266,287.603 101.402 C 287.819 101.536,288.206 101.185,288.463 100.623 C 288.719 100.060,289.099 99.600,289.308 99.600 C 289.516 99.600,289.572 99.106,289.431 98.500 C 289.242 97.684,289.280 97.555,289.582 98.000 C 289.922 98.502,289.990 98.470,290.004 97.800 C 290.013 97.360,290.061 92.680,290.110 87.400 L 290.200 77.800 300.000 77.800 L 309.800 77.800 309.800 100.000 L 309.800 122.200 175.000 122.200 L 40.200 122.200 40.096 100.400 C 40.039 88.410,40.079 78.372,40.186 78.093 C 40.337 77.698,42.539 77.610,50.090 77.693 L 59.800 77.800 59.890 87.400 M385.205 99.191 C 384.609 100.305,384.792 100.488,385.779 99.766 C 386.346 99.351,386.437 99.077,386.116 98.756 C 385.794 98.434,385.547 98.552,385.205 99.191 M387.600 100.400 C 388.167 101.460,389.068 101.415,389.608 100.300 C 390.002 99.488,389.989 99.468,389.478 100.100 C 388.784 100.958,388.000 101.011,388.000 100.200 C 388.000 99.870,387.814 99.600,387.586 99.600 C 387.305 99.600,387.310 99.858,387.600 100.400 M60.696 101.154 C 60.551 101.709,60.653 101.878,61.045 101.727 C 61.350 101.610,61.600 101.744,61.600 102.024 C 61.600 102.304,61.708 102.425,61.841 102.293 C 61.973 102.160,61.816 101.673,61.492 101.210 C 60.915 100.387,60.897 100.385,60.696 101.154 M88.469 101.239 C 88.180 101.700,88.047 102.180,88.172 102.306 C 88.298 102.431,88.400 102.304,88.400 102.024 C 88.400 101.744,88.650 101.610,88.955 101.727 C 89.344 101.877,89.449 101.710,89.308 101.170 C 89.061 100.226,89.103 100.222,88.469 101.239 M260.696 101.154 C 260.551 101.709,260.653 101.878,261.045 101.727 C 261.350 101.610,261.600 101.744,261.600 102.024 C 261.600 102.304,261.708 102.425,261.841 102.293 C 261.973 102.160,261.816 101.673,261.492 101.210 C 260.915 100.387,260.897 100.385,260.696 101.154 M288.469 101.239 C 288.180 101.700,288.047 102.180,288.172 102.306 C 288.298 102.431,288.400 102.304,288.400 102.024 C 288.400 101.744,288.650 101.610,288.955 101.727 C 289.344 101.877,289.449 101.710,289.308 101.170 C 289.061 100.226,289.103 100.222,288.469 101.239 M359.800 150.000 L 359.800 172.200 350.000 172.200 L 340.200 172.200 340.096 150.400 C 340.039 138.410,340.079 128.372,340.186 128.093 C 340.337 127.698,342.539 127.610,350.090 127.693 L 359.800 127.800 359.800 150.000 M309.897 231.200 L 309.800 309.800 175.000 309.800 L 40.200 309.800 40.103 231.200 L 40.006 152.600 175.000 152.600 L 309.994 152.600 309.897 231.200 M63.832 179.062 C 63.598 179.671,63.502 179.690,63.185 179.189 C 62.833 178.633,62.771 178.677,62.650 179.567 C 62.539 180.378,62.057 180.411,61.808 179.624 C 61.662 179.165,61.356 178.903,61.128 179.044 C 60.860 179.210,60.896 179.412,61.232 179.620 C 61.640 179.872,61.646 180.062,61.260 180.527 C 60.992 180.851,60.816 181.270,60.871 181.458 C 60.925 181.646,60.745 182.205,60.471 182.701 C 60.102 183.365,59.984 186.442,60.020 194.419 C 60.053 201.958,59.931 205.402,59.615 205.782 C 59.303 206.158,59.292 206.410,59.581 206.588 C 59.811 206.731,60.000 206.586,60.000 206.266 C 60.000 205.947,60.250 205.590,60.555 205.473 C 60.944 205.323,61.049 205.490,60.908 206.030 C 60.771 206.556,60.912 206.800,61.353 206.800 C 61.709 206.800,62.000 206.980,62.000 207.200 C 62.000 207.420,62.315 207.613,62.700 207.628 C 63.299 207.652,63.284 207.706,62.600 208.000 C 61.886 208.307,61.878 208.347,62.524 208.372 C 62.922 208.387,63.164 208.535,63.062 208.700 C 62.960 208.865,70.772 209.000,80.423 209.000 C 90.073 209.000,97.661 208.878,97.285 208.728 C 96.849 208.555,97.145 208.446,98.100 208.428 C 98.925 208.413,99.600 208.238,99.600 208.039 C 99.600 207.841,100.140 207.490,100.800 207.260 C 101.460 207.030,102.000 206.732,102.000 206.597 C 102.000 206.463,101.836 206.454,101.635 206.578 C 100.934 207.012,101.470 205.485,102.208 204.945 C 102.753 204.546,102.798 204.398,102.376 204.394 C 101.898 204.389,101.893 204.329,102.345 204.042 C 102.806 203.751,102.806 203.663,102.345 203.480 C 101.958 203.326,101.945 203.254,102.300 203.232 C 102.964 203.190,103.028 184.788,102.367 184.127 C 102.056 183.816,102.095 183.543,102.504 183.160 C 102.996 182.701,102.959 182.524,102.238 181.883 C 101.777 181.474,101.670 181.277,102.000 181.446 C 102.509 181.707,102.520 181.655,102.071 181.101 C 101.780 180.741,101.240 180.544,100.871 180.662 C 100.477 180.787,100.365 180.736,100.600 180.538 C 101.167 180.059,101.280 179.200,100.776 179.200 C 100.543 179.200,100.476 179.001,100.626 178.759 C 100.776 178.516,100.434 178.621,99.866 178.993 C 98.990 179.568,98.720 179.589,98.072 179.135 C 97.454 178.702,94.220 178.638,81.034 178.800 C 72.083 178.910,64.612 178.853,64.433 178.673 C 64.253 178.493,63.983 178.668,63.832 179.062 M125.337 178.697 C 125.506 178.970,125.440 179.510,125.191 179.897 C 124.780 180.537,124.759 180.539,124.952 179.913 C 125.069 179.535,124.993 179.119,124.783 178.989 C 124.428 178.770,124.223 179.339,124.367 180.142 C 124.400 180.330,124.243 180.707,124.018 180.979 C 123.792 181.251,123.725 181.592,123.870 181.737 C 124.015 181.882,123.959 182.000,123.747 182.000 C 123.534 182.000,123.164 181.804,122.925 181.565 C 122.612 181.252,122.415 181.252,122.222 181.565 C 122.074 181.804,122.143 182.000,122.376 182.000 C 122.609 182.000,122.800 182.450,122.800 183.000 C 122.800 183.550,122.665 184.000,122.500 184.000 C 122.267 184.000,122.222 192.600,122.393 204.700 C 122.397 204.975,122.668 205.200,122.996 205.200 C 123.734 205.200,123.658 207.203,122.909 207.490 C 122.002 207.838,122.370 208.400,123.500 208.394 C 124.255 208.390,124.433 208.282,124.066 208.050 C 123.641 207.780,123.669 207.659,124.203 207.454 C 125.100 207.110,125.855 207.590,125.143 208.052 C 124.448 208.502,123.536 208.476,144.600 208.608 C 154.280 208.668,161.660 208.578,161.000 208.406 L 159.800 208.095 160.924 208.047 C 161.542 208.021,161.948 207.839,161.827 207.643 C 161.700 207.438,162.309 207.444,163.256 207.657 C 164.163 207.861,165.002 207.932,165.119 207.814 C 165.237 207.696,164.988 207.596,164.567 207.591 C 163.877 207.583,163.895 207.509,164.752 206.850 L 165.704 206.118 164.763 205.459 C 163.953 204.892,163.925 204.800,164.560 204.800 C 165.171 204.800,165.212 204.696,164.800 204.200 C 164.399 203.716,164.408 203.600,164.851 203.600 C 165.453 203.601,165.310 184.373,164.703 183.769 C 164.540 183.607,164.607 183.232,164.852 182.937 C 165.185 182.537,165.171 182.400,164.800 182.400 C 164.410 182.400,164.413 182.266,164.816 181.780 C 165.262 181.243,165.192 181.186,164.290 181.349 C 163.463 181.499,163.299 181.407,163.492 180.903 C 163.644 180.508,163.573 180.369,163.305 180.535 C 163.031 180.704,162.951 180.510,163.084 180.001 C 163.199 179.560,163.452 179.200,163.647 179.200 C 163.841 179.200,163.994 178.975,163.987 178.700 C 163.979 178.425,163.619 178.625,163.187 179.144 C 162.754 179.664,162.378 179.979,162.350 179.844 C 162.322 179.710,162.278 179.435,162.250 179.233 C 162.222 179.032,162.036 178.717,161.836 178.533 C 161.625 178.341,161.589 178.405,161.750 178.685 C 161.945 179.025,161.677 179.145,160.853 179.085 C 160.207 179.038,159.733 178.910,159.801 178.800 C 159.868 178.690,152.494 178.600,143.413 178.600 C 129.571 178.600,126.936 178.689,127.113 179.150 C 127.259 179.530,126.971 179.469,126.177 178.950 C 125.547 178.537,125.169 178.424,125.337 178.697 M186.013 178.700 C 186.006 178.975,186.159 179.200,186.353 179.200 C 186.548 179.200,186.801 179.560,186.916 180.001 C 187.049 180.510,186.969 180.704,186.695 180.535 C 186.427 180.369,186.356 180.508,186.508 180.903 C 186.701 181.407,186.537 181.499,185.710 181.349 C 184.808 181.186,184.738 181.243,185.184 181.780 C 185.587 182.266,185.590 182.400,185.200 182.400 C 184.829 182.400,184.815 182.537,185.148 182.937 C 185.393 183.232,185.460 183.607,185.297 183.769 C 184.690 184.373,184.547 203.601,185.149 203.600 C 185.592 203.600,185.601 203.716,185.200 204.200 C 184.788 204.696,184.829 204.800,185.440 204.800 C 186.075 204.800,186.047 204.892,185.237 205.459 L 184.296 206.118 185.248 206.850 C 186.105 207.509,186.123 207.583,185.433 207.591 C 185.012 207.596,184.763 207.696,184.881 207.814 C 184.998 207.932,185.837 207.861,186.744 207.657 C 187.691 207.444,188.300 207.438,188.173 207.643 C 188.052 207.839,188.458 208.021,189.076 208.047 L 190.200 208.095 189.000 208.406 C 188.340 208.578,195.720 208.668,205.400 208.608 C 226.464 208.476,225.552 208.502,224.857 208.052 C 224.145 207.590,224.900 207.110,225.797 207.454 C 226.331 207.659,226.359 207.780,225.934 208.050 C 225.567 208.282,225.745 208.390,226.500 208.394 C 227.630 208.400,227.998 207.838,227.091 207.490 C 226.342 207.203,226.266 205.200,227.004 205.200 C 227.332 205.200,227.603 204.975,227.607 204.700 C 227.778 192.600,227.733 184.000,227.500 184.000 C 227.335 184.000,227.200 183.550,227.200 183.000 C 227.200 182.450,227.391 182.000,227.624 182.000 C 227.857 182.000,227.926 181.804,227.778 181.565 C 227.585 181.252,227.388 181.252,227.075 181.565 C 226.836 181.804,226.466 182.000,226.253 182.000 C 226.041 182.000,225.985 181.882,226.130 181.737 C 226.275 181.592,226.208 181.251,225.982 180.979 C 225.757 180.707,225.600 180.330,225.633 180.142 C 225.777 179.339,225.572 178.770,225.217 178.989 C 225.007 179.119,224.931 179.535,225.048 179.913 C 225.241 180.539,225.220 180.537,224.809 179.897 C 224.560 179.510,224.494 178.970,224.663 178.697 C 224.831 178.424,224.453 178.537,223.823 178.950 C 223.029 179.469,222.741 179.530,222.887 179.150 C 223.064 178.689,220.429 178.600,206.587 178.600 C 197.506 178.600,190.132 178.690,190.199 178.800 C 190.267 178.910,189.793 179.038,189.147 179.085 C 188.323 179.145,188.055 179.025,188.250 178.685 C 188.411 178.405,188.375 178.341,188.164 178.533 C 187.964 178.717,187.778 179.032,187.750 179.233 C 187.722 179.435,187.678 179.710,187.650 179.844 C 187.623 179.979,187.246 179.664,186.813 179.144 C 186.381 178.625,186.021 178.425,186.013 178.700 M249.374 178.759 C 249.524 179.001,249.457 179.200,249.224 179.200 C 248.720 179.200,248.833 180.059,249.400 180.538 C 249.635 180.736,249.523 180.787,249.129 180.662 C 248.760 180.544,248.220 180.741,247.929 181.101 C 247.480 181.655,247.491 181.707,248.000 181.446 C 248.330 181.277,248.223 181.474,247.762 181.883 C 247.041 182.524,247.004 182.701,247.496 183.160 C 247.905 183.543,247.944 183.816,247.633 184.127 C 246.972 184.788,247.036 203.198,247.700 203.206 C 248.066 203.211,248.054 203.305,247.655 203.558 C 247.194 203.849,247.194 203.937,247.655 204.120 C 248.096 204.295,248.090 204.343,247.624 204.368 C 247.194 204.392,247.237 204.539,247.792 204.945 C 248.530 205.485,249.066 207.012,248.365 206.578 C 248.164 206.454,248.000 206.463,248.000 206.597 C 248.000 206.732,248.540 207.030,249.200 207.260 C 249.860 207.490,250.400 207.841,250.400 208.039 C 250.400 208.238,251.075 208.413,251.900 208.428 C 252.855 208.446,253.151 208.555,252.715 208.728 C 252.339 208.878,259.927 209.000,269.577 209.000 C 279.228 209.000,287.040 208.865,286.938 208.700 C 286.836 208.535,287.078 208.387,287.476 208.372 C 288.122 208.347,288.114 208.307,287.400 208.000 C 286.716 207.706,286.701 207.652,287.300 207.628 C 287.685 207.613,288.000 207.420,288.000 207.200 C 288.000 206.980,288.291 206.800,288.647 206.800 C 289.088 206.800,289.229 206.556,289.092 206.030 C 288.951 205.490,289.056 205.323,289.445 205.473 C 289.750 205.590,290.000 205.947,290.000 206.266 C 290.000 206.586,290.189 206.731,290.419 206.588 C 290.708 206.410,290.697 206.158,290.385 205.782 C 290.069 205.402,289.947 201.958,289.980 194.419 C 290.016 186.442,289.898 183.365,289.529 182.701 C 289.255 182.205,289.075 181.646,289.129 181.458 C 289.184 181.270,289.008 180.851,288.740 180.527 C 288.354 180.062,288.360 179.872,288.768 179.620 C 289.104 179.412,289.140 179.210,288.872 179.044 C 288.644 178.903,288.342 179.154,288.200 179.600 C 288.058 180.046,287.772 180.307,287.565 180.178 C 287.357 180.050,287.283 179.790,287.400 179.600 C 287.517 179.410,287.430 179.142,287.207 179.004 C 286.983 178.866,286.794 178.988,286.787 179.276 C 286.779 179.616,286.582 179.545,286.226 179.076 C 285.924 178.678,285.587 178.498,285.477 178.676 C 285.367 178.854,277.945 178.910,268.984 178.800 C 255.783 178.638,252.546 178.701,251.928 179.135 C 251.280 179.589,251.010 179.568,250.134 178.993 C 249.566 178.621,249.224 178.516,249.374 178.759 M163.850 179.919 C 163.742 180.095,163.798 180.474,163.976 180.762 C 164.207 181.135,164.379 181.157,164.578 180.836 C 164.730 180.589,165.051 180.508,165.289 180.655 C 165.542 180.812,165.609 180.738,165.449 180.479 C 165.298 180.235,164.881 180.148,164.522 180.285 C 164.085 180.453,163.965 180.381,164.158 180.068 C 164.317 179.811,164.357 179.600,164.247 179.600 C 164.137 179.600,163.958 179.744,163.850 179.919 M185.804 180.006 C 186.040 180.389,185.950 180.466,185.478 180.285 C 185.119 180.148,184.701 180.252,184.549 180.517 C 184.396 180.783,184.419 180.867,184.599 180.703 C 184.779 180.540,185.147 180.590,185.416 180.814 C 185.762 181.100,185.974 181.044,186.136 180.623 C 186.262 180.294,186.165 179.902,185.921 179.751 C 185.631 179.572,185.591 179.661,185.804 180.006 M359.897 281.200 L 359.800 359.800 225.000 359.800 L 90.200 359.800 90.200 350.000 L 90.200 340.200 206.800 340.104 C 270.930 340.051,323.638 339.917,323.929 339.805 C 324.220 339.694,324.817 339.795,325.256 340.030 C 325.863 340.355,326.286 340.305,327.027 339.819 C 327.562 339.469,328.000 339.360,328.000 339.578 C 328.000 339.796,328.300 339.860,328.666 339.719 C 329.044 339.574,329.229 339.629,329.095 339.846 C 328.965 340.057,329.179 340.229,329.571 340.229 C 329.962 340.229,330.264 339.957,330.241 339.624 C 330.192 338.904,331.708 338.779,332.000 339.480 C 332.320 340.248,334.758 338.898,334.689 337.991 C 334.659 337.586,334.488 337.345,334.310 337.455 C 334.133 337.565,334.083 337.810,334.200 338.000 C 334.433 338.378,333.726 338.928,332.833 339.063 C 332.522 339.110,332.826 338.589,333.510 337.906 C 334.617 336.798,334.829 336.725,335.453 337.231 C 335.966 337.648,336.069 337.659,335.837 337.273 C 335.613 336.902,335.738 336.784,336.260 336.873 C 336.791 336.964,336.964 336.791,336.873 336.260 C 336.784 335.738,336.902 335.613,337.273 335.837 C 337.659 336.069,337.648 335.966,337.231 335.453 C 336.725 334.829,336.798 334.617,337.906 333.510 C 338.589 332.826,339.110 332.522,339.063 332.833 C 338.928 333.726,338.378 334.433,338.000 334.200 C 337.810 334.083,337.565 334.133,337.455 334.310 C 337.345 334.488,337.586 334.659,337.991 334.689 C 338.898 334.758,340.248 332.320,339.480 332.000 C 338.779 331.708,338.904 330.192,339.624 330.241 C 339.957 330.264,340.229 329.962,340.229 329.571 C 340.229 329.179,340.057 328.965,339.846 329.095 C 339.629 329.229,339.574 329.044,339.719 328.666 C 339.860 328.300,339.796 328.000,339.578 328.000 C 339.360 328.000,339.469 327.562,339.819 327.027 C 340.318 326.265,340.360 325.872,340.010 325.219 C 339.764 324.759,339.664 324.221,339.787 324.022 C 339.910 323.823,340.009 296.421,340.007 263.130 L 340.003 202.600 349.998 202.600 L 359.994 202.600 359.897 281.200 M164.800 206.292 C 164.470 206.417,164.075 206.713,163.922 206.948 C 163.769 207.184,163.504 207.237,163.333 207.067 C 162.963 206.696,163.952 206.002,164.800 206.038 C 165.333 206.060,165.333 206.089,164.800 206.292 M186.388 206.384 C 186.712 206.589,186.837 206.896,186.667 207.067 C 186.496 207.237,186.231 207.184,186.078 206.948 C 185.925 206.713,185.530 206.417,185.200 206.292 C 184.667 206.089,184.667 206.060,185.200 206.038 C 185.530 206.024,186.065 206.180,186.388 206.384 M65.200 253.949 C 65.200 254.403,65.091 254.408,64.570 253.975 C 64.049 253.542,63.880 253.547,63.600 254.000 C 63.314 254.462,63.150 254.458,62.556 253.974 C 61.927 253.462,61.879 253.476,62.113 254.100 C 62.418 254.914,61.617 255.057,60.880 254.320 C 60.507 253.947,60.400 253.947,60.400 254.320 C 60.400 254.584,60.595 254.800,60.833 254.800 C 61.072 254.800,61.184 255.025,61.083 255.300 C 60.983 255.575,60.698 255.755,60.450 255.700 C 60.203 255.645,59.991 255.915,59.981 256.300 C 59.846 261.279,60.024 280.246,60.211 280.836 C 60.350 281.273,60.751 281.572,61.116 281.511 C 61.515 281.443,61.814 281.712,61.882 282.200 C 61.990 282.978,61.984 282.978,61.664 282.221 C 61.344 281.465,61.328 281.467,61.116 282.279 C 60.894 283.126,61.334 283.269,62.303 282.663 C 62.614 282.469,62.902 282.600,63.058 283.008 C 63.261 283.535,63.379 283.560,63.650 283.134 C 63.881 282.769,63.990 282.751,63.994 283.077 C 63.997 283.339,64.360 283.485,64.800 283.400 C 65.240 283.315,65.600 283.416,65.600 283.623 C 65.600 284.205,96.677 284.123,97.037 283.539 C 97.235 283.220,97.488 283.305,97.861 283.816 C 98.157 284.221,98.400 284.366,98.400 284.138 C 98.400 283.910,99.110 283.758,99.985 283.799 C 100.857 283.841,101.474 283.720,101.357 283.531 C 101.240 283.342,100.990 283.283,100.800 283.400 C 100.126 283.817,100.020 282.881,100.681 282.345 C 101.237 281.894,101.297 281.893,101.029 282.340 C 100.769 282.771,100.864 282.794,101.499 282.454 C 101.937 282.220,102.437 282.157,102.612 282.314 C 102.786 282.471,102.797 282.372,102.636 282.093 C 102.476 281.815,102.132 281.718,101.872 281.878 C 101.613 282.038,101.713 281.690,102.096 281.105 C 102.593 280.345,102.661 279.961,102.334 279.759 C 102.033 279.573,101.987 279.655,102.200 280.000 C 102.428 280.368,102.369 280.428,102.001 280.201 C 101.586 279.944,101.611 279.781,102.125 279.405 C 102.637 279.031,102.670 278.822,102.286 278.407 C 101.903 277.993,101.908 277.944,102.312 278.172 C 102.722 278.404,102.816 276.433,102.787 268.231 C 102.762 261.317,102.612 258.000,102.326 258.000 C 102.077 258.000,102.129 257.722,102.451 257.325 C 102.936 256.729,102.912 256.683,102.243 256.934 C 101.618 257.169,101.570 257.118,101.965 256.642 C 102.362 256.163,102.272 256.084,101.433 256.177 C 100.877 256.238,100.518 256.133,100.635 255.944 C 100.752 255.755,100.612 255.597,100.324 255.594 C 100.004 255.590,99.956 255.473,100.200 255.294 C 101.365 254.438,100.792 253.772,99.474 254.449 C 98.754 254.819,98.688 254.805,99.100 254.369 C 99.375 254.078,99.597 253.651,99.594 253.420 C 99.591 253.189,99.439 253.234,99.258 253.520 C 99.076 253.806,98.584 254.009,98.164 253.972 C 92.890 253.502,65.200 253.483,65.200 253.949 M125.415 253.739 C 124.951 254.079,124.797 254.472,125.001 254.801 C 125.214 255.146,125.167 255.227,124.862 255.038 C 124.603 254.878,124.397 254.983,124.394 255.276 C 124.389 255.659,124.279 255.638,123.986 255.200 C 123.635 254.675,123.518 254.687,123.053 255.294 C 122.760 255.675,122.416 255.883,122.288 255.754 C 122.159 255.626,122.154 255.903,122.276 256.370 C 122.485 257.170,122.529 257.178,123.036 256.509 C 123.737 255.585,123.787 256.526,123.100 257.726 C 122.437 258.884,121.980 280.517,122.629 279.976 C 122.923 279.732,123.021 280.026,122.939 280.910 C 122.830 282.091,122.849 282.115,123.170 281.200 C 123.363 280.650,123.561 280.335,123.610 280.500 C 123.840 281.266,123.904 281.675,123.950 282.676 C 123.997 283.678,124.037 283.702,124.537 283.019 C 125.051 282.315,125.100 282.321,125.694 283.170 C 126.139 283.805,126.374 283.907,126.526 283.528 C 126.698 283.098,126.743 283.097,126.768 283.524 C 126.786 283.812,126.980 283.936,127.200 283.800 C 127.420 283.664,127.600 283.698,127.600 283.876 C 127.600 284.275,160.786 284.159,161.143 283.759 C 161.284 283.601,161.147 283.618,160.838 283.798 C 160.457 284.019,160.370 283.973,160.566 283.655 C 160.725 283.398,161.068 283.320,161.328 283.482 C 162.035 283.924,162.771 283.971,163.007 283.589 C 163.122 283.402,163.578 283.319,164.019 283.404 C 164.465 283.489,164.715 283.387,164.583 283.173 C 164.452 282.960,164.154 282.905,163.920 283.049 C 163.677 283.200,163.575 283.075,163.681 282.756 C 163.783 282.450,164.062 282.200,164.300 282.200 C 164.538 282.200,164.883 282.036,165.067 281.836 C 165.257 281.628,165.204 281.584,164.942 281.734 C 164.348 282.073,163.894 280.913,164.479 280.551 C 164.767 280.373,164.810 280.461,164.600 280.800 C 164.384 281.149,164.433 281.227,164.745 281.034 C 165.002 280.875,165.103 280.567,164.969 280.350 C 164.573 279.709,164.482 278.003,164.856 278.235 C 165.045 278.352,165.200 274.132,165.200 268.857 C 165.200 261.559,165.080 259.218,164.700 259.065 C 164.338 258.919,164.355 258.854,164.762 258.832 C 165.193 258.807,165.151 258.609,164.584 257.983 C 163.990 257.326,163.970 257.214,164.482 257.410 C 164.832 257.545,165.255 257.434,165.421 257.165 C 165.608 256.864,165.557 256.779,165.289 256.945 C 165.051 257.092,164.740 257.027,164.600 256.800 C 164.460 256.573,164.149 256.508,163.911 256.655 C 163.658 256.812,163.591 256.738,163.751 256.479 C 163.902 256.235,164.335 256.129,164.713 256.243 C 165.091 256.357,164.860 256.143,164.200 255.767 C 162.961 255.062,162.352 254.401,162.588 254.019 C 162.662 253.899,162.284 253.774,161.747 253.741 C 160.908 253.691,160.843 253.770,161.285 254.303 C 161.723 254.831,161.605 254.823,160.502 254.253 C 159.341 253.652,157.544 253.593,143.402 253.691 C 133.065 253.762,127.597 253.662,127.591 253.400 C 127.586 253.180,127.211 253.450,126.757 254.000 C 125.950 254.978,125.936 254.980,126.128 254.100 C 126.360 253.042,126.365 253.045,125.415 253.739 M222.409 253.400 C 222.403 253.662,216.935 253.762,206.598 253.691 C 192.456 253.593,190.659 253.652,189.498 254.253 C 188.395 254.823,188.277 254.831,188.715 254.303 C 189.157 253.770,189.092 253.691,188.253 253.741 C 187.716 253.774,187.338 253.899,187.412 254.019 C 187.648 254.401,187.039 255.062,185.800 255.767 C 185.140 256.143,184.909 256.357,185.287 256.243 C 185.665 256.129,186.098 256.235,186.249 256.479 C 186.409 256.738,186.342 256.812,186.089 256.655 C 185.851 256.508,185.540 256.573,185.400 256.800 C 185.260 257.027,184.949 257.092,184.711 256.945 C 184.443 256.779,184.392 256.864,184.579 257.165 C 184.745 257.434,185.168 257.545,185.518 257.410 C 186.054 257.205,186.043 257.289,185.453 257.941 C 184.910 258.541,184.870 258.765,185.276 258.927 C 185.669 259.084,185.675 259.145,185.300 259.168 C 184.915 259.193,184.800 261.408,184.800 268.824 C 184.800 274.117,184.955 278.352,185.144 278.235 C 185.518 278.003,185.427 279.709,185.031 280.350 C 184.897 280.567,184.998 280.875,185.255 281.034 C 185.567 281.227,185.616 281.149,185.400 280.800 C 185.190 280.461,185.233 280.373,185.521 280.551 C 186.106 280.913,185.652 282.073,185.058 281.734 C 184.796 281.584,184.743 281.628,184.933 281.836 C 185.117 282.036,185.462 282.200,185.700 282.200 C 185.938 282.200,186.217 282.450,186.319 282.756 C 186.425 283.075,186.323 283.200,186.080 283.049 C 185.846 282.905,185.548 282.960,185.417 283.173 C 185.285 283.387,185.535 283.489,185.981 283.404 C 186.422 283.319,186.878 283.402,186.993 283.589 C 187.229 283.971,187.965 283.924,188.672 283.482 C 188.932 283.320,189.275 283.398,189.434 283.655 C 189.630 283.973,189.543 284.019,189.162 283.798 C 188.853 283.618,188.716 283.601,188.857 283.759 C 189.214 284.159,222.400 284.275,222.400 283.876 C 222.400 283.698,222.565 283.655,222.766 283.779 C 222.967 283.903,223.223 283.779,223.334 283.502 C 223.476 283.150,223.546 283.176,223.568 283.589 C 223.589 283.981,223.822 283.862,224.263 283.231 C 224.896 282.327,224.951 282.318,225.463 283.019 C 225.963 283.702,226.003 283.678,226.050 282.676 C 226.096 281.675,226.160 281.266,226.390 280.500 C 226.439 280.335,226.637 280.650,226.830 281.200 C 227.151 282.115,227.170 282.091,227.061 280.910 C 226.979 280.026,227.077 279.732,227.371 279.976 C 228.020 280.517,227.563 258.884,226.900 257.726 C 226.213 256.526,226.263 255.585,226.964 256.509 C 227.471 257.178,227.515 257.170,227.724 256.370 C 227.846 255.903,227.841 255.626,227.712 255.754 C 227.584 255.883,227.240 255.675,226.947 255.294 C 226.482 254.687,226.365 254.675,226.014 255.200 C 225.721 255.638,225.611 255.659,225.606 255.276 C 225.603 254.988,225.422 254.863,225.205 254.997 C 224.982 255.135,224.908 254.983,225.036 254.651 C 225.168 254.306,224.934 253.886,224.470 253.638 C 223.775 253.266,223.702 253.323,223.873 254.107 C 224.062 254.974,224.044 254.971,223.243 254.000 C 222.789 253.450,222.414 253.180,222.409 253.400 M250.406 253.420 C 250.403 253.651,250.625 254.078,250.900 254.369 C 251.312 254.805,251.246 254.819,250.526 254.449 C 249.208 253.772,248.635 254.438,249.800 255.294 C 250.044 255.473,249.996 255.590,249.676 255.594 C 249.388 255.597,249.248 255.755,249.365 255.944 C 249.482 256.133,249.123 256.238,248.567 256.177 C 247.728 256.084,247.638 256.163,248.035 256.642 C 248.430 257.118,248.382 257.169,247.757 256.934 C 247.088 256.683,247.064 256.729,247.549 257.325 C 247.871 257.722,247.923 258.000,247.674 258.000 C 247.388 258.000,247.238 261.317,247.213 268.231 C 247.184 276.433,247.278 278.404,247.688 278.172 C 248.092 277.944,248.097 277.993,247.714 278.407 C 247.330 278.822,247.363 279.031,247.875 279.405 C 248.389 279.781,248.414 279.944,247.999 280.201 C 247.631 280.428,247.572 280.368,247.800 280.000 C 248.013 279.655,247.967 279.573,247.666 279.759 C 247.339 279.961,247.407 280.345,247.904 281.105 C 248.287 281.690,248.387 282.038,248.128 281.878 C 247.868 281.718,247.524 281.815,247.364 282.093 C 247.203 282.372,247.214 282.471,247.388 282.314 C 247.563 282.157,248.063 282.220,248.501 282.454 C 249.136 282.794,249.231 282.771,248.971 282.340 C 248.703 281.893,248.763 281.894,249.319 282.345 C 249.980 282.881,249.874 283.817,249.200 283.400 C 249.010 283.283,248.760 283.342,248.643 283.531 C 248.526 283.720,249.143 283.841,250.015 283.799 C 250.890 283.758,251.600 283.910,251.600 284.138 C 251.600 284.366,251.843 284.221,252.139 283.816 C 252.512 283.305,252.765 283.220,252.963 283.539 C 253.323 284.123,284.400 284.205,284.400 283.623 C 284.400 283.416,284.760 283.315,285.200 283.400 C 285.640 283.485,286.003 283.339,286.006 283.077 C 286.010 282.751,286.119 282.769,286.350 283.134 C 286.621 283.560,286.739 283.535,286.942 283.008 C 287.098 282.600,287.386 282.469,287.697 282.663 C 288.666 283.269,289.106 283.126,288.884 282.279 C 288.672 281.467,288.656 281.465,288.336 282.221 C 288.016 282.978,288.010 282.978,288.118 282.200 C 288.186 281.712,288.485 281.443,288.884 281.511 C 289.249 281.572,289.650 281.273,289.789 280.836 C 289.976 280.246,290.154 261.279,290.019 256.300 C 290.009 255.915,289.798 255.645,289.550 255.700 C 289.302 255.755,289.017 255.575,288.917 255.300 C 288.816 255.025,288.928 254.800,289.167 254.800 C 289.405 254.800,289.600 254.584,289.600 254.320 C 289.600 253.947,289.493 253.947,289.120 254.320 C 288.383 255.057,287.582 254.914,287.887 254.100 C 288.121 253.476,288.073 253.462,287.444 253.974 C 286.850 254.458,286.686 254.462,286.400 254.000 C 286.120 253.547,285.951 253.542,285.430 253.975 C 284.909 254.408,284.800 254.403,284.800 253.949 C 284.800 253.483,257.110 253.502,251.836 253.972 C 251.416 254.009,250.924 253.806,250.742 253.520 C 250.561 253.234,250.409 253.189,250.406 253.420 M99.714 282.920 C 99.842 283.255,99.582 283.440,98.983 283.440 C 98.471 283.440,98.142 283.293,98.253 283.113 C 98.364 282.934,98.623 282.891,98.828 283.017 C 99.032 283.144,99.200 283.057,99.200 282.824 C 99.200 282.241,99.473 282.292,99.714 282.920 M251.207 282.996 C 251.393 282.881,251.636 282.934,251.747 283.113 C 251.858 283.293,251.529 283.440,251.017 283.440 C 250.354 283.440,250.153 283.267,250.317 282.840 C 250.473 282.433,250.598 282.395,250.708 282.723 C 250.796 282.988,251.021 283.111,251.207 282.996 M338.188 335.620 C 337.807 336.235,338.328 336.632,338.842 336.118 C 339.129 335.831,339.136 335.607,338.862 335.439 C 338.639 335.300,338.335 335.382,338.188 335.620 M337.738 338.217 C 337.608 338.557,337.613 338.947,337.751 339.084 C 337.888 339.221,338.000 339.047,338.000 338.696 C 338.000 338.345,338.315 337.976,338.700 337.876 C 339.356 337.704,339.355 337.690,338.687 337.646 C 338.296 337.621,337.868 337.878,337.738 338.217 M335.417 338.372 C 335.144 338.814,335.775 339.292,336.144 338.922 C 336.525 338.542,336.454 338.000,336.024 338.000 C 335.817 338.000,335.544 338.168,335.417 338.372 M388.188 385.620 C 387.807 386.235,388.328 386.632,388.842 386.118 C 389.129 385.831,389.136 385.607,388.862 385.439 C 388.639 385.300,388.335 385.382,388.188 385.620 M387.738 388.217 C 387.608 388.557,387.613 388.947,387.751 389.084 C 387.888 389.221,388.000 389.047,388.000 388.696 C 388.000 388.345,388.315 387.976,388.700 387.876 C 389.356 387.704,389.355 387.690,388.687 387.646 C 388.296 387.621,387.868 387.878,387.738 388.217 M385.417 388.372 C 385.144 388.814,385.775 389.292,386.144 388.922 C 386.525 388.542,386.454 388.000,386.024 388.000 C 385.817 388.000,385.544 388.168,385.417 388.372 " stroke="none" fill="#ffd966" fill-rule="evenodd"></path><path id="path1" d="" stroke="none" fill="#100b404" fill-rule="evenodd"></path><path id="path2" d="" stroke="none" fill="#100b404" fill-rule="evenodd"></path><path id="path3" d="" stroke="none" fill="#100b404" fill-rule="evenodd"></path><path id="path4" d="" stroke="none" fill="#100b404" fill-rule="evenodd"></path></g></svg>