<svg id="svg" version="1.1" xmlns="http://www.w3.org/2000/svg" xmlns:xlink="http://www.w3.org/1999/xlink" width="400" height="400" viewBox="0, 0, 400,400"><g id="svgg"><path id="path0" d="M131.067 20.700 C 131.303 21.640,130.663 21.950,130.162 21.138 C 129.973 20.833,130.054 20.786,130.400 21.000 C 130.756 21.220,130.827 21.168,130.622 20.836 C 130.397 20.471,130.116 20.531,129.509 21.074 C 128.756 21.748,128.668 21.752,128.271 21.131 C 127.888 20.532,127.796 20.526,127.391 21.080 C 126.874 21.787,125.010 21.431,125.456 20.709 C 125.619 20.445,125.536 20.392,125.242 20.574 C 124.905 20.783,124.885 21.021,125.177 21.372 C 125.685 21.984,125.327 22.424,124.561 22.130 C 124.252 22.011,124.000 22.114,124.000 22.357 C 124.000 22.601,123.850 22.800,123.667 22.800 C 123.121 22.800,123.289 21.652,123.867 21.430 C 124.160 21.317,124.397 20.994,124.394 20.713 C 124.389 20.303,124.322 20.304,124.057 20.721 C 123.875 21.008,123.473 21.188,123.163 21.121 C 122.854 21.055,122.598 21.302,122.595 21.672 C 122.587 22.710,121.984 23.071,121.550 22.297 C 121.120 21.529,120.400 21.358,120.400 22.024 C 120.400 22.257,120.580 22.336,120.800 22.200 C 121.020 22.064,121.200 22.139,121.200 22.367 C 121.200 22.595,120.615 22.741,119.900 22.691 C 119.185 22.641,118.595 22.780,118.588 23.000 C 118.582 23.220,118.807 23.347,119.088 23.282 C 119.873 23.102,119.696 23.913,118.900 24.145 C 118.322 24.313,118.340 24.345,119.000 24.328 C 121.197 24.273,121.257 24.358,119.906 25.634 C 119.188 26.313,118.870 26.736,119.200 26.575 C 119.696 26.333,119.710 26.379,119.283 26.838 C 118.843 27.311,118.712 27.305,118.400 26.800 C 118.088 26.295,117.957 26.289,117.517 26.762 C 117.232 27.068,117.205 27.202,117.458 27.061 C 117.710 26.920,118.023 27.083,118.154 27.423 C 118.284 27.763,118.228 27.941,118.030 27.818 C 117.831 27.695,117.577 27.821,117.465 28.098 C 117.310 28.478,117.158 28.454,116.837 28.000 C 116.603 27.670,116.409 27.589,116.406 27.820 C 116.403 28.051,116.594 28.434,116.830 28.670 C 117.137 28.977,116.908 29.223,116.030 29.529 C 115.354 29.765,114.800 29.809,114.800 29.626 C 114.800 29.443,114.426 29.195,113.968 29.076 C 113.319 28.906,113.192 29.002,113.390 29.517 C 113.529 29.879,113.513 30.047,113.356 29.889 C 113.198 29.732,112.760 30.112,112.381 30.735 C 111.662 31.918,110.575 32.232,110.238 31.354 C 110.118 31.042,110.257 30.924,110.591 31.052 C 110.995 31.207,111.082 31.015,110.916 30.332 C 110.732 29.567,110.787 29.490,111.226 29.900 C 111.520 30.175,111.949 30.394,112.180 30.387 C 112.658 30.373,111.220 29.200,110.724 29.200 C 110.546 29.200,110.400 29.470,110.400 29.800 C 110.400 30.130,110.256 30.400,110.080 30.400 C 109.904 30.400,109.760 31.011,109.760 31.757 C 109.760 32.799,109.904 33.068,110.380 32.919 C 110.894 32.758,110.904 32.793,110.436 33.125 C 110.126 33.346,109.586 33.426,109.236 33.304 C 108.720 33.124,108.694 33.183,109.100 33.621 C 109.686 34.253,109.771 34.953,109.220 34.612 C 109.011 34.483,108.645 34.743,108.406 35.189 C 108.046 35.861,108.094 36.006,108.686 36.033 C 109.141 36.053,108.940 36.267,108.131 36.621 C 107.432 36.927,106.747 37.362,106.607 37.589 C 106.467 37.815,106.173 38.000,105.953 38.000 C 105.733 38.000,105.652 37.839,105.774 37.642 C 105.896 37.445,105.717 37.177,105.377 37.046 C 105.023 36.911,104.863 36.978,105.003 37.205 C 105.137 37.422,105.057 37.623,104.824 37.650 C 104.013 37.746,103.797 37.814,103.286 38.138 C 102.903 38.381,102.820 38.203,102.959 37.439 C 103.061 36.874,102.977 36.309,102.772 36.183 C 102.568 36.056,102.400 36.343,102.400 36.819 C 102.400 37.411,102.217 37.615,101.820 37.463 C 101.433 37.315,101.315 37.433,101.463 37.820 C 101.617 38.222,101.396 38.409,100.743 38.428 C 99.868 38.454,99.857 38.479,100.600 38.773 C 101.040 38.947,101.670 38.990,102.000 38.870 C 102.514 38.682,102.522 38.747,102.055 39.321 C 101.755 39.689,101.388 39.916,101.240 39.825 C 101.092 39.734,100.971 39.992,100.971 40.400 C 100.971 40.808,101.111 41.055,101.281 40.950 C 101.451 40.845,101.484 41.037,101.354 41.377 C 101.223 41.717,100.967 41.904,100.786 41.791 C 100.604 41.679,100.354 41.751,100.230 41.952 C 100.106 42.152,100.269 42.418,100.592 42.541 C 100.915 42.665,101.358 42.459,101.577 42.083 C 101.796 41.708,101.981 41.552,101.988 41.737 C 101.995 41.922,101.640 42.531,101.200 43.091 C 100.356 44.164,100.128 45.015,100.795 44.603 C 101.032 44.457,101.083 44.640,100.922 45.059 C 100.759 45.485,100.591 45.572,100.494 45.283 C 100.288 44.665,98.786 45.415,98.832 46.114 C 98.855 46.478,98.914 46.474,99.066 46.098 C 99.177 45.821,99.444 45.703,99.658 45.836 C 100.172 46.153,98.813 47.171,97.853 47.187 C 97.306 47.197,97.163 47.413,97.316 48.000 C 97.611 49.129,96.965 49.371,96.277 48.389 C 95.709 47.578,95.700 47.581,95.700 48.575 C 95.700 49.208,95.868 49.490,96.150 49.331 C 96.398 49.191,96.071 49.644,95.425 50.338 C 94.234 51.618,93.487 52.100,94.400 51.000 C 95.104 50.152,94.689 50.256,93.600 51.200 C 93.093 51.640,92.885 52.000,93.139 52.000 C 93.392 52.000,93.600 52.281,93.600 52.624 C 93.600 52.967,93.740 53.160,93.912 53.054 C 94.083 52.948,94.188 53.343,94.144 53.931 C 94.101 54.519,94.050 55.349,94.032 55.776 C 94.000 56.545,93.994 56.545,93.433 55.777 C 93.121 55.350,92.731 55.136,92.566 55.301 C 92.401 55.465,92.477 55.600,92.733 55.600 C 92.990 55.600,93.200 55.799,93.200 56.043 C 93.200 56.286,92.921 56.378,92.579 56.247 C 92.223 56.111,92.063 56.178,92.203 56.405 C 92.337 56.622,92.707 56.800,93.024 56.800 C 93.714 56.800,93.785 57.439,93.138 57.838 C 92.833 58.027,92.786 57.946,93.000 57.600 C 93.195 57.284,93.166 57.174,92.927 57.321 C 92.461 57.610,92.502 59.049,92.989 59.492 C 93.176 59.661,93.182 59.547,93.002 59.238 C 92.781 58.857,92.827 58.770,93.145 58.966 C 93.763 59.348,93.273 60.114,92.580 59.848 C 92.233 59.715,92.120 59.847,92.263 60.220 C 92.386 60.539,92.642 60.800,92.834 60.800 C 93.026 60.800,92.980 61.245,92.733 61.788 C 92.393 62.532,92.400 62.919,92.761 63.353 C 93.086 63.745,93.105 64.011,92.819 64.188 C 92.589 64.331,92.400 64.717,92.400 65.047 C 92.400 65.377,92.541 65.560,92.714 65.453 C 92.887 65.346,93.029 65.606,93.029 66.029 C 93.029 66.453,92.797 66.800,92.514 66.800 C 91.789 66.800,91.873 67.577,92.630 67.867 C 93.062 68.033,93.185 68.404,93.024 69.048 C 92.724 70.242,92.714 329.311,93.014 330.092 C 93.136 330.411,92.958 330.903,92.618 331.185 C 91.875 331.802,91.802 332.800,92.500 332.800 C 92.775 332.800,93.028 333.278,93.062 333.862 C 93.106 334.621,93.022 334.763,92.768 334.361 C 92.479 333.905,92.411 333.927,92.406 334.476 C 92.403 334.848,92.580 335.264,92.801 335.401 C 93.069 335.566,93.069 335.897,92.801 336.398 C 92.273 337.384,92.294 337.713,92.862 337.362 C 93.154 337.181,93.215 337.252,93.027 337.556 C 92.864 337.819,92.930 338.275,93.174 338.569 C 93.515 338.979,93.430 339.151,92.808 339.314 C 92.364 339.430,92.000 339.716,92.000 339.950 C 92.000 340.188,92.308 340.259,92.700 340.113 C 93.313 339.883,93.332 339.934,92.851 340.525 C 92.378 341.107,92.392 341.200,92.951 341.200 C 93.773 341.200,93.781 341.762,92.971 342.571 C 92.569 342.974,92.514 343.200,92.820 343.200 C 93.184 343.200,93.187 343.334,92.835 343.758 C 92.469 344.199,92.513 344.304,93.043 344.258 C 93.412 344.226,93.803 344.454,93.912 344.764 C 94.047 345.150,93.907 345.250,93.467 345.081 C 93.114 344.946,92.702 345.035,92.551 345.279 C 92.372 345.569,92.461 345.609,92.806 345.396 C 93.180 345.165,93.268 345.247,93.104 345.672 C 92.974 346.011,93.192 346.506,93.600 346.800 C 94.000 347.088,94.241 347.548,94.136 347.822 C 94.031 348.095,94.166 348.455,94.435 348.621 C 94.768 348.827,94.821 348.757,94.600 348.400 C 94.372 348.032,94.431 347.972,94.799 348.199 C 95.212 348.455,95.180 348.625,94.649 349.014 C 94.042 349.458,94.039 349.529,94.614 349.750 C 95.463 350.076,94.906 350.921,93.999 350.684 C 93.608 350.582,93.044 350.653,92.744 350.843 C 92.327 351.108,92.374 351.189,92.947 351.194 C 93.524 351.199,93.650 351.424,93.504 352.188 C 93.401 352.731,93.470 353.081,93.658 352.964 C 93.846 352.848,94.000 352.403,94.000 351.976 C 94.000 351.549,94.270 351.200,94.600 351.200 C 94.930 351.200,95.200 351.391,95.200 351.624 C 95.200 351.857,95.050 351.955,94.867 351.841 C 94.683 351.728,94.533 351.897,94.533 352.218 C 94.533 353.007,94.749 352.951,95.555 351.956 L 96.239 351.111 97.486 352.531 C 98.403 353.576,98.791 353.799,98.954 353.376 C 99.075 353.059,99.496 352.821,99.887 352.846 C 100.555 352.890,100.556 352.904,99.900 353.076 C 99.151 353.271,98.915 354.400,99.624 354.400 C 99.857 354.400,99.919 354.192,99.762 353.938 C 99.584 353.650,99.652 353.585,99.945 353.766 C 100.202 353.925,100.309 354.223,100.183 354.428 C 100.056 354.632,100.278 354.806,100.676 354.813 C 101.343 354.824,101.337 354.875,100.600 355.454 C 99.819 356.068,99.822 356.076,100.750 355.799 C 101.349 355.619,101.609 355.663,101.452 355.916 C 101.316 356.136,101.458 356.805,101.768 357.403 C 102.077 358.000,102.248 358.948,102.146 359.510 C 101.984 360.401,102.041 360.464,102.590 360.008 C 102.936 359.721,103.335 359.602,103.476 359.743 C 103.618 359.884,103.523 360.000,103.267 360.000 C 103.010 360.000,102.800 360.192,102.800 360.427 C 102.800 360.683,103.161 360.746,103.700 360.586 C 104.583 360.322,104.585 360.329,103.800 360.931 C 103.360 361.268,102.940 361.377,102.867 361.172 C 102.793 360.967,102.598 360.800,102.433 360.800 C 102.021 360.800,102.052 361.988,102.467 362.050 C 103.569 362.215,103.820 362.199,104.000 361.953 C 104.502 361.267,105.776 361.432,105.907 362.200 C 105.984 362.651,105.903 362.825,105.722 362.600 C 105.277 362.047,104.400 361.914,104.400 362.400 C 104.400 362.755,105.258 362.980,106.100 362.847 C 106.265 362.821,106.400 362.991,106.400 363.224 C 106.400 363.457,106.599 363.524,106.843 363.374 C 107.153 363.182,107.126 363.002,106.754 362.772 C 106.462 362.591,106.325 362.342,106.449 362.218 C 106.573 362.094,107.162 362.444,107.758 362.996 C 108.354 363.548,109.132 364.000,109.487 364.000 C 109.843 364.000,110.016 364.117,109.873 364.260 C 109.730 364.404,109.902 364.733,110.257 364.992 C 110.833 365.414,110.801 365.543,109.944 366.231 C 109.137 366.880,108.690 368.597,109.246 368.913 C 111.274 370.063,111.242 370.056,110.729 369.235 C 110.460 368.804,110.132 368.518,110.000 368.600 C 109.868 368.682,109.760 368.316,109.760 367.787 C 109.760 367.259,109.842 366.909,109.943 367.010 C 110.044 367.111,110.413 366.970,110.763 366.697 C 111.324 366.259,111.336 366.282,110.862 366.887 C 110.566 367.264,110.396 367.788,110.484 368.052 C 110.719 368.756,111.909 368.815,112.170 368.135 C 112.293 367.813,112.595 367.673,112.840 367.825 C 113.159 368.022,113.145 368.186,112.791 368.405 C 112.133 368.812,112.722 369.716,113.461 369.432 C 113.806 369.300,113.935 369.381,113.780 369.632 C 113.637 369.864,113.273 369.960,112.972 369.845 C 112.672 369.729,112.319 369.807,112.189 370.017 C 111.922 370.450,113.717 370.549,114.141 370.125 C 114.656 369.611,116.000 369.731,116.000 370.290 C 116.000 370.597,115.820 370.736,115.600 370.600 C 115.380 370.464,115.200 370.543,115.200 370.776 C 115.200 371.288,115.109 371.285,116.708 370.826 C 117.847 370.500,117.965 370.534,117.649 371.099 C 117.279 371.759,118.025 372.925,118.679 372.707 C 118.855 372.648,119.000 372.780,119.000 373.000 C 119.000 373.220,118.825 373.342,118.611 373.270 C 118.397 373.199,118.564 373.518,118.982 373.980 C 119.587 374.649,119.640 374.918,119.242 375.309 C 118.847 375.697,118.770 375.685,118.871 375.250 C 118.942 374.948,118.753 374.610,118.450 374.500 C 117.630 374.202,118.110 375.267,119.024 375.771 C 119.451 376.007,119.890 376.290,120.000 376.400 C 120.110 376.510,120.470 376.600,120.800 376.600 C 121.130 376.600,121.426 376.960,121.457 377.400 C 121.489 377.840,121.534 378.460,121.557 378.778 C 121.583 379.126,122.161 378.743,123.012 377.815 C 123.788 376.968,124.297 376.602,124.144 377.003 C 123.959 377.484,124.013 377.639,124.304 377.459 C 124.547 377.309,124.875 377.398,125.034 377.655 C 125.215 377.948,125.150 378.016,124.862 377.838 C 124.608 377.681,124.400 377.743,124.400 377.976 C 124.400 378.209,124.580 378.400,124.800 378.400 C 125.020 378.400,125.200 378.659,125.200 378.976 C 125.200 379.293,125.378 379.663,125.595 379.797 C 125.822 379.937,125.889 379.777,125.753 379.421 C 125.622 379.079,125.714 378.800,125.957 378.800 C 126.201 378.800,126.400 378.980,126.400 379.200 C 126.400 379.420,126.731 379.285,127.137 378.900 C 127.542 378.515,127.790 378.047,127.688 377.860 C 127.587 377.673,127.897 377.731,128.378 377.988 C 129.127 378.389,129.177 378.552,128.726 379.128 C 128.265 379.716,128.279 379.738,128.837 379.303 C 129.187 379.030,129.586 378.920,129.724 379.057 C 130.133 379.466,131.743 379.478,132.561 379.079 C 133.191 378.771,133.275 378.827,133.051 379.410 C 132.819 380.017,132.869 380.040,133.424 379.580 C 134.134 378.991,135.683 378.741,135.358 379.268 C 135.245 379.451,135.349 379.600,135.589 379.600 C 135.829 379.600,136.131 379.325,136.260 378.988 C 136.466 378.451,136.553 378.457,136.979 379.039 C 137.387 379.596,137.610 379.623,138.392 379.204 C 139.200 378.772,139.289 378.791,139.073 379.353 C 138.937 379.709,139.005 380.000,139.225 380.000 C 139.445 380.000,139.734 379.717,139.867 379.370 C 140.030 378.945,140.405 378.815,141.023 378.970 C 142.338 379.300,260.862 379.320,261.700 378.990 C 262.191 378.797,262.400 378.907,262.400 379.357 C 262.400 379.730,262.731 380.000,263.187 380.000 C 263.748 380.000,263.903 379.814,263.727 379.354 C 263.529 378.837,263.655 378.764,264.359 378.987 C 264.911 379.162,265.605 379.027,266.220 378.624 C 267.338 377.891,267.495 378.047,266.571 378.971 C 265.650 379.893,266.655 379.758,268.036 378.775 C 269.223 377.929,270.000 378.018,270.000 379.000 C 270.000 379.304,270.178 379.663,270.395 379.797 C 270.616 379.934,270.693 379.785,270.568 379.461 C 270.291 378.739,271.039 378.216,271.434 378.855 C 271.627 379.167,271.549 379.216,271.200 379.000 C 270.832 378.772,270.772 378.831,270.999 379.199 C 271.322 379.721,272.400 378.737,272.400 377.920 C 272.400 377.740,272.760 377.818,273.200 378.093 C 273.640 378.368,274.000 378.854,274.000 379.173 C 274.000 379.600,274.143 379.557,274.543 379.010 C 275.071 378.288,275.099 378.289,275.531 379.034 C 275.787 379.475,275.981 379.576,275.988 379.271 C 276.007 378.417,277.087 377.503,277.368 378.104 C 277.549 378.491,277.653 378.484,277.841 378.076 C 278.031 377.665,278.248 377.700,278.844 378.240 C 279.262 378.619,279.717 378.816,279.855 378.678 C 279.993 378.541,280.397 378.579,280.753 378.764 C 281.109 378.948,281.760 378.955,282.200 378.778 L 283.000 378.456 282.200 378.381 C 281.760 378.339,281.157 378.339,280.860 378.379 C 280.563 378.420,280.429 378.277,280.562 378.062 C 280.700 377.838,280.385 377.716,279.827 377.777 C 278.875 377.882,278.867 377.861,279.525 376.955 C 280.287 375.905,280.626 375.795,281.038 376.462 C 281.232 376.775,281.143 376.815,280.762 376.585 C 280.283 376.297,280.281 376.347,280.749 376.923 C 281.453 377.791,282.051 377.798,281.719 376.934 C 281.529 376.439,281.609 376.353,282.032 376.599 C 282.344 376.780,282.467 376.781,282.303 376.601 C 282.140 376.421,282.224 376.013,282.488 375.694 C 282.874 375.229,282.818 375.003,282.208 374.557 C 281.743 374.217,281.652 374.000,281.973 374.000 C 282.403 374.000,282.404 373.887,281.981 373.377 C 281.554 372.863,281.563 372.776,282.032 372.877 C 282.370 372.950,282.577 372.712,282.542 372.286 C 282.498 371.744,282.678 371.634,283.292 371.829 C 283.786 371.986,284.004 371.930,283.852 371.685 C 283.606 371.287,284.436 370.794,285.333 370.806 C 285.604 370.810,285.548 370.981,285.200 371.213 C 284.764 371.505,284.966 371.554,285.943 371.394 C 286.753 371.261,287.537 371.377,287.920 371.687 C 288.405 372.079,288.483 372.083,288.253 371.700 C 288.066 371.389,288.179 371.200,288.553 371.200 C 288.883 371.200,289.281 370.992,289.438 370.738 C 289.615 370.452,289.548 370.385,289.262 370.562 C 289.008 370.719,288.800 370.687,288.800 370.490 C 288.800 369.805,289.331 369.611,289.904 370.086 C 290.684 370.734,291.876 370.916,291.252 370.292 C 290.565 369.605,290.710 369.251,291.587 369.481 C 292.285 369.663,292.354 369.523,292.190 368.243 C 292.088 367.449,292.176 366.800,292.384 366.800 C 292.877 366.800,294.800 364.877,294.800 364.384 C 294.800 364.176,295.449 364.088,296.243 364.190 C 297.523 364.354,297.663 364.285,297.481 363.587 C 297.251 362.710,297.605 362.565,298.292 363.252 C 298.916 363.876,298.734 362.684,298.086 361.904 C 297.611 361.331,297.805 360.800,298.490 360.800 C 298.687 360.800,298.719 361.008,298.562 361.262 C 298.385 361.548,298.452 361.615,298.738 361.438 C 298.992 361.281,299.200 360.883,299.200 360.553 C 299.200 360.179,299.389 360.066,299.700 360.253 C 300.083 360.483,300.079 360.405,299.687 359.920 C 299.377 359.537,299.261 358.753,299.394 357.943 C 299.554 356.966,299.505 356.764,299.213 357.200 C 298.981 357.548,298.810 357.604,298.806 357.333 C 298.794 356.436,299.287 355.606,299.685 355.852 C 299.930 356.004,299.986 355.786,299.829 355.292 C 299.634 354.678,299.744 354.498,300.286 354.542 C 300.712 354.577,300.950 354.370,300.877 354.032 C 300.776 353.563,300.863 353.554,301.377 353.981 C 301.887 354.404,302.000 354.403,302.000 353.973 C 302.000 353.652,302.217 353.743,302.557 354.208 C 303.003 354.818,303.229 354.874,303.694 354.488 C 304.013 354.224,304.421 354.140,304.601 354.303 C 304.781 354.467,304.780 354.344,304.599 354.032 C 304.353 353.609,304.439 353.529,304.934 353.719 C 305.798 354.051,305.791 353.453,304.923 352.749 C 304.347 352.281,304.297 352.283,304.585 352.762 C 304.815 353.143,304.775 353.232,304.462 353.038 C 303.795 352.626,303.905 352.287,304.955 351.525 C 305.861 350.867,305.882 350.875,305.777 351.827 C 305.716 352.385,305.838 352.700,306.062 352.562 C 306.277 352.429,306.420 352.563,306.379 352.860 C 306.339 353.157,306.339 353.760,306.381 354.200 L 306.456 355.000 306.778 354.200 C 306.955 353.760,306.948 353.109,306.764 352.753 C 306.579 352.397,306.541 351.993,306.678 351.855 C 306.816 351.717,306.619 351.262,306.240 350.844 C 305.700 350.248,305.665 350.031,306.076 349.841 C 306.484 349.653,306.491 349.549,306.104 349.368 C 305.508 349.089,306.420 348.000,307.248 348.000 C 307.528 348.000,307.407 347.745,306.976 347.429 C 306.214 346.868,306.214 346.852,306.964 346.561 C 307.691 346.279,307.687 346.250,306.864 345.945 C 305.781 345.545,305.772 345.044,306.830 344.058 C 307.442 343.488,307.531 343.204,307.168 342.980 C 306.853 342.785,306.779 342.842,306.962 343.138 C 307.119 343.392,307.042 343.600,306.790 343.600 C 306.539 343.600,306.413 343.375,306.510 343.100 C 306.607 342.825,306.980 342.625,307.339 342.655 C 307.698 342.685,307.893 342.550,307.772 342.355 C 307.651 342.160,307.158 341.979,306.676 341.954 C 305.968 341.916,305.938 341.871,306.521 341.720 C 307.018 341.591,307.122 341.388,306.855 341.067 C 306.181 340.254,306.185 340.158,306.929 339.414 C 307.633 338.710,307.634 337.997,306.932 336.168 C 306.723 335.622,306.813 335.519,307.331 335.718 C 307.819 335.905,308.000 335.759,308.000 335.175 C 308.000 334.735,307.731 334.272,307.402 334.146 C 307.074 334.019,306.898 333.764,307.013 333.579 C 307.316 333.089,307.273 67.056,306.970 66.265 C 306.797 65.815,306.922 65.600,307.357 65.600 C 307.730 65.600,308.000 65.269,308.000 64.813 C 308.000 64.252,307.814 64.097,307.354 64.273 C 306.837 64.471,306.764 64.345,306.987 63.641 C 307.162 63.089,307.027 62.395,306.624 61.780 C 305.891 60.662,306.047 60.505,306.971 61.429 C 307.872 62.329,307.767 61.358,306.820 60.028 C 306.224 59.191,306.173 58.933,306.603 58.933 C 306.912 58.933,307.055 59.111,306.921 59.328 C 306.774 59.566,306.885 59.595,307.199 59.401 C 307.607 59.149,307.560 58.960,306.984 58.539 C 306.350 58.075,306.338 58.000,306.900 58.000 C 307.259 58.000,307.681 57.792,307.838 57.538 C 308.015 57.252,307.948 57.185,307.662 57.362 C 306.915 57.824,306.285 57.220,306.830 56.564 C 307.200 56.118,307.162 56.000,306.649 56.000 C 306.292 56.000,306.000 55.826,306.000 55.613 C 306.000 55.399,306.252 55.322,306.560 55.440 C 307.267 55.711,307.774 54.955,307.145 54.566 C 306.833 54.373,306.784 54.451,307.000 54.800 C 307.222 55.160,307.168 55.227,306.827 55.017 C 306.488 54.807,306.461 54.579,306.739 54.301 C 307.018 54.022,306.956 53.699,306.545 53.288 C 306.181 52.924,306.033 52.322,306.173 51.767 C 306.299 51.262,306.223 50.738,306.004 50.602 C 304.919 49.932,304.791 48.839,305.696 47.960 C 306.193 47.477,306.375 47.209,306.100 47.365 C 305.485 47.712,305.439 47.121,306.035 46.525 C 306.348 46.212,306.345 46.013,306.025 45.815 C 305.780 45.664,305.613 45.689,305.654 45.870 C 305.774 46.413,305.143 47.600,304.734 47.600 C 304.524 47.600,304.481 47.392,304.638 47.138 C 304.821 46.843,304.747 46.785,304.435 46.979 C 304.166 47.145,304.048 47.548,304.173 47.874 C 304.313 48.239,304.209 48.400,303.900 48.292 C 303.625 48.196,303.453 47.821,303.518 47.459 C 303.582 47.096,303.447 46.800,303.218 46.800 C 302.988 46.800,302.797 47.025,302.794 47.300 C 302.791 47.575,302.551 47.350,302.261 46.800 C 301.658 45.656,301.749 45.298,302.490 45.899 C 303.092 46.387,305.200 46.445,305.200 45.974 C 305.200 45.501,304.558 45.176,304.244 45.489 C 303.821 45.913,302.800 45.966,302.800 45.565 C 302.800 45.364,303.010 45.200,303.267 45.200 C 303.523 45.200,303.619 45.086,303.479 44.946 C 303.340 44.807,302.647 44.932,301.939 45.225 C 300.915 45.649,300.618 45.655,300.485 45.255 C 300.393 44.978,299.886 44.287,299.359 43.718 C 298.272 42.545,298.188 42.344,298.900 42.617 C 299.213 42.736,299.422 42.422,299.459 41.777 C 299.503 41.027,299.361 40.806,298.939 40.968 C 298.615 41.093,298.466 41.016,298.603 40.795 C 298.737 40.578,298.612 40.397,298.324 40.394 C 297.965 40.390,297.939 40.295,298.243 40.094 C 298.487 39.932,298.638 39.485,298.579 39.100 C 298.519 38.715,298.686 38.400,298.950 38.400 C 299.213 38.400,299.429 38.047,299.429 37.617 C 299.429 36.852,299.410 36.853,298.662 37.656 C 298.051 38.312,297.828 38.369,297.561 37.939 C 297.369 37.631,297.392 37.343,297.615 37.266 C 297.830 37.192,297.898 36.958,297.767 36.746 C 297.626 36.519,297.339 36.506,297.064 36.715 C 296.784 36.930,296.205 36.861,295.600 36.541 C 294.975 36.210,294.825 35.992,295.200 35.960 C 295.530 35.931,296.070 35.883,296.400 35.854 C 296.746 35.823,297.055 35.315,297.131 34.655 C 297.257 33.551,297.207 33.515,295.730 33.656 L 294.198 33.802 294.344 32.270 C 294.485 30.793,294.449 30.743,293.345 30.869 C 292.475 30.969,292.189 31.219,292.154 31.913 C 292.100 32.975,291.600 33.656,291.600 32.667 C 291.600 32.300,291.420 32.000,291.200 32.000 C 290.980 32.000,290.800 31.809,290.800 31.576 C 290.800 31.343,290.963 31.254,291.163 31.377 C 291.362 31.500,291.421 31.200,291.293 30.711 C 291.165 30.221,290.986 30.041,290.897 30.310 C 290.807 30.580,290.584 30.800,290.402 30.800 C 289.876 30.800,290.198 29.573,290.828 29.174 C 291.143 28.975,291.205 28.809,290.967 28.806 C 290.728 28.803,290.408 28.925,290.255 29.078 C 289.717 29.616,288.734 29.550,288.949 28.990 C 289.086 28.631,288.956 28.519,288.575 28.665 C 288.253 28.789,287.693 28.644,287.329 28.345 C 286.727 27.848,286.715 27.886,287.194 28.785 C 287.714 29.761,287.710 29.764,286.758 29.140 C 286.107 28.714,285.509 28.616,284.911 28.837 C 284.354 29.043,283.924 29.000,283.751 28.721 C 283.575 28.436,283.678 28.381,284.038 28.568 C 284.347 28.728,284.240 28.568,283.800 28.212 C 283.360 27.856,282.595 27.464,282.100 27.339 C 281.055 27.077,280.931 26.589,281.821 26.247 C 282.177 26.111,282.337 26.178,282.197 26.405 C 282.063 26.622,282.143 26.800,282.376 26.800 C 283.023 26.800,282.881 25.717,282.200 25.455 C 281.870 25.329,281.600 24.939,281.600 24.589 C 281.600 24.239,281.783 24.066,282.007 24.204 C 282.230 24.342,282.292 24.651,282.145 24.889 C 281.981 25.155,282.063 25.208,282.358 25.026 C 282.695 24.817,282.715 24.579,282.423 24.228 C 282.194 23.952,282.140 23.579,282.303 23.399 C 282.467 23.219,282.387 23.194,282.128 23.342 C 281.868 23.491,281.542 23.430,281.404 23.207 C 281.074 22.672,280.400 22.684,280.400 23.224 C 280.400 23.457,280.625 23.520,280.900 23.365 C 281.288 23.146,281.294 23.198,280.926 23.596 C 280.542 24.011,280.333 23.990,279.829 23.486 C 279.363 23.020,279.331 22.814,279.704 22.664 C 280.081 22.511,280.075 22.456,279.676 22.432 C 279.367 22.413,279.276 22.196,279.453 21.900 C 279.628 21.609,279.439 21.650,279.000 22.000 C 278.586 22.330,278.370 22.394,278.521 22.142 C 278.700 21.844,278.449 21.705,277.798 21.742 C 277.249 21.774,276.800 21.948,276.800 22.129 C 276.800 22.309,276.517 22.174,276.171 21.829 C 275.826 21.483,275.341 21.200,275.095 21.200 C 274.849 21.200,274.996 21.464,275.424 21.787 C 276.362 22.497,275.886 22.584,274.674 21.925 C 274.193 21.663,273.468 21.422,273.063 21.389 C 272.658 21.355,272.156 21.074,271.947 20.764 C 271.652 20.327,271.593 20.380,271.683 21.000 C 271.811 21.874,270.738 22.152,270.563 21.290 C 270.507 21.010,270.552 20.965,270.663 21.190 C 270.775 21.416,271.033 21.600,271.237 21.600 C 271.440 21.600,271.394 21.259,271.133 20.842 C 270.672 20.104,270.643 20.105,269.994 20.907 C 269.475 21.547,269.255 21.613,269.002 21.203 C 268.772 20.831,268.830 20.772,269.200 21.000 C 269.554 21.219,269.627 21.168,269.426 20.842 C 269.209 20.490,268.987 20.479,268.600 20.800 C 268.234 21.104,267.991 21.110,267.812 20.819 C 267.669 20.589,267.248 20.414,266.876 20.432 C 266.460 20.451,266.392 20.541,266.700 20.665 C 266.975 20.776,267.200 21.038,267.200 21.247 C 267.200 21.470,266.862 21.447,266.385 21.192 C 265.937 20.952,265.189 20.876,264.724 21.024 C 264.055 21.236,263.931 21.157,264.127 20.646 C 264.304 20.184,264.147 20.000,263.575 20.000 C 263.135 20.000,262.667 20.280,262.536 20.623 C 262.390 21.004,262.045 21.148,261.648 20.993 C 260.879 20.692,140.104 20.688,139.618 20.989 C 139.434 21.102,139.181 20.926,139.054 20.598 C 138.928 20.269,138.555 20.000,138.225 20.000 C 137.895 20.000,137.711 20.225,137.816 20.500 C 137.941 20.828,137.582 21.015,136.770 21.044 C 135.954 21.073,135.715 20.973,136.067 20.750 C 136.478 20.489,136.445 20.411,135.920 20.406 C 135.546 20.403,135.082 20.681,134.890 21.025 C 134.573 21.592,134.492 21.592,134.021 21.025 C 133.433 20.317,132.566 20.207,132.203 20.795 C 132.066 21.016,132.215 21.093,132.539 20.968 C 132.858 20.846,133.219 20.907,133.341 21.105 C 133.786 21.824,131.980 21.326,131.418 20.574 C 130.860 19.828,130.848 19.832,131.067 20.700 M259.300 21.082 C 258.805 21.178,257.995 21.178,257.500 21.082 C 257.005 20.987,257.410 20.909,258.400 20.909 C 259.390 20.909,259.795 20.987,259.300 21.082 M293.800 32.205 C 293.800 33.319,292.711 33.202,292.538 32.070 C 292.430 31.361,292.562 31.173,293.098 31.276 C 293.486 31.351,293.800 31.766,293.800 32.205 M295.244 31.747 C 294.901 32.161,294.925 32.405,295.342 32.752 C 295.986 33.286,297.053 32.333,296.611 31.618 C 296.259 31.049,295.786 31.093,295.244 31.747 M296.400 31.933 C 296.400 32.454,295.924 32.801,295.538 32.561 C 295.124 32.306,295.481 31.600,296.024 31.600 C 296.231 31.600,296.400 31.750,296.400 31.933 M293.831 34.173 C 294.490 34.833,294.577 35.844,294.005 36.197 C 293.777 36.338,293.711 36.176,293.849 35.816 C 294.177 34.961,293.219 33.902,292.328 34.135 C 291.928 34.239,291.524 34.200,291.429 34.047 C 291.092 33.501,293.273 33.615,293.831 34.173 M296.725 34.907 C 296.823 35.415,296.637 35.570,296.040 35.479 C 294.988 35.319,294.649 34.968,294.997 34.404 C 295.400 33.752,296.568 34.092,296.725 34.907 M141.001 42.897 C 141.181 42.733,141.216 42.797,141.079 43.037 C 140.922 43.314,141.229 43.447,141.915 43.400 C 142.512 43.358,143.180 43.426,143.400 43.551 C 144.072 43.932,144.786 43.947,145.009 43.585 C 145.126 43.396,144.860 43.311,144.419 43.396 C 143.978 43.481,143.519 43.393,143.400 43.200 C 143.281 43.007,142.822 42.919,142.381 43.004 C 141.940 43.089,141.674 43.004,141.791 42.815 C 141.967 42.530,143.145 42.533,143.500 42.819 C 143.555 42.864,143.960 42.945,144.400 43.000 C 144.840 43.055,145.335 43.126,145.500 43.158 C 146.283 43.310,251.960 43.162,252.759 43.008 C 253.479 42.869,253.620 42.972,253.419 43.493 C 253.211 44.036,253.325 44.015,254.052 43.378 C 254.605 42.892,254.815 42.825,254.610 43.200 C 254.354 43.670,254.392 43.699,254.790 43.331 C 255.387 42.780,256.514 43.092,256.136 43.704 C 255.967 43.976,256.073 44.001,256.438 43.773 C 256.747 43.580,257.225 43.372,257.500 43.311 C 257.775 43.250,258.315 43.133,258.700 43.052 C 259.085 42.971,259.702 43.060,260.071 43.250 C 260.560 43.503,260.791 43.408,260.925 42.899 C 261.025 42.514,261.139 42.830,261.179 43.600 C 261.248 44.942,261.267 44.959,261.646 44.010 C 261.969 43.201,262.110 43.128,262.414 43.610 C 262.765 44.163,262.982 43.858,262.825 43.032 C 262.786 42.830,263.024 42.888,263.354 43.162 C 263.683 43.435,263.858 43.960,263.744 44.329 C 263.582 44.848,263.685 44.819,264.199 44.200 C 264.852 43.413,264.861 43.416,264.731 44.397 C 264.633 45.143,264.305 45.446,263.433 45.597 C 262.791 45.709,262.184 46.070,262.083 46.400 C 261.935 46.884,262.002 46.904,262.430 46.500 C 263.179 45.794,264.268 45.880,264.571 46.669 C 264.798 47.260,264.899 47.236,265.437 46.469 C 265.771 45.991,266.296 45.600,266.603 45.600 C 266.909 45.600,267.344 45.285,267.568 44.900 C 267.932 44.275,267.977 44.296,267.988 45.100 C 267.996 45.705,267.764 46.000,267.280 46.000 C 266.028 46.000,265.517 46.845,266.267 47.675 C 266.854 48.322,266.857 48.400,266.295 48.400 C 265.950 48.400,265.576 48.175,265.465 47.900 C 265.344 47.601,265.250 47.682,265.232 48.100 C 265.185 49.136,267.012 49.004,267.774 47.916 C 268.248 47.239,268.502 47.142,268.863 47.503 C 269.224 47.864,269.178 48.033,268.667 48.230 C 267.937 48.510,267.743 49.600,268.424 49.600 C 268.657 49.600,268.712 49.375,268.547 49.100 C 268.340 48.755,268.455 48.769,268.918 49.145 C 269.288 49.444,269.871 49.581,270.216 49.449 C 270.560 49.317,270.739 49.375,270.614 49.577 C 270.489 49.779,270.579 50.063,270.813 50.208 C 271.110 50.392,271.112 50.624,270.820 50.976 C 270.492 51.371,270.755 51.444,272.039 51.316 C 273.311 51.189,273.606 51.269,273.362 51.676 C 273.118 52.081,273.177 52.099,273.623 51.755 C 275.332 50.435,277.523 51.988,277.369 54.409 C 277.312 55.307,277.449 56.000,277.683 56.000 C 277.933 56.000,277.900 56.239,277.600 56.600 C 277.256 57.015,277.241 57.200,277.551 57.200 C 277.798 57.200,278.000 57.391,278.000 57.624 C 278.000 57.857,277.820 57.936,277.600 57.800 C 277.380 57.664,277.200 57.743,277.200 57.976 C 277.200 58.209,277.380 58.400,277.600 58.400 C 277.820 58.400,278.000 58.591,278.000 58.824 C 278.000 59.057,277.792 59.119,277.538 58.962 C 277.252 58.785,277.185 58.852,277.362 59.138 C 277.752 59.770,279.200 59.724,279.200 59.080 C 279.200 58.794,278.975 58.323,278.700 58.033 C 278.286 57.597,278.351 57.597,279.074 58.033 C 279.555 58.323,279.859 58.704,279.751 58.880 C 279.642 59.056,279.731 59.200,279.948 59.200 C 280.165 59.200,280.627 59.485,280.975 59.832 C 281.747 60.604,281.382 61.449,280.569 60.774 C 280.261 60.518,280.107 60.150,280.228 59.955 C 280.349 59.760,280.257 59.600,280.024 59.600 C 279.394 59.600,279.511 60.628,280.208 61.206 C 280.705 61.619,280.959 61.580,281.608 60.993 C 282.332 60.338,282.400 60.334,282.400 60.948 C 282.400 61.371,281.966 61.707,281.226 61.855 C 279.870 62.126,279.425 62.926,280.016 64.029 C 280.528 64.986,280.728 65.008,280.656 64.100 C 280.619 63.645,280.860 63.422,281.343 63.463 C 281.868 63.507,281.961 63.401,281.660 63.100 C 281.359 62.799,281.034 62.839,280.552 63.237 C 279.961 63.725,279.896 63.720,280.068 63.200 C 280.339 62.382,282.155 62.424,282.315 63.251 C 282.384 63.610,282.148 64.195,281.791 64.551 C 281.300 65.043,281.274 65.200,281.684 65.200 C 281.981 65.200,282.428 64.660,282.678 64.000 C 282.927 63.340,283.362 62.800,283.645 62.800 C 284.046 62.800,284.053 62.907,283.680 63.280 C 282.975 63.985,283.096 64.805,283.900 64.768 C 284.318 64.750,284.399 64.656,284.100 64.535 C 283.528 64.304,283.420 63.600,283.957 63.600 C 284.762 63.600,284.718 64.846,283.886 65.631 C 283.098 66.376,283.082 66.454,283.747 66.334 C 285.042 66.101,285.463 67.351,284.671 69.078 L 283.974 70.600 284.810 69.600 C 285.626 68.623,285.625 68.641,284.770 70.400 L 283.894 72.200 284.824 71.400 L 285.754 70.600 284.904 72.077 C 284.180 73.335,284.154 73.516,284.726 73.296 C 285.322 73.068,285.313 73.167,284.649 74.181 C 283.964 75.227,283.959 75.301,284.595 75.057 C 285.118 74.857,285.229 74.948,285.045 75.428 C 284.724 76.263,284.722 323.732,285.043 324.568 C 285.229 325.052,285.119 325.144,284.595 324.943 C 283.959 324.699,283.964 324.773,284.649 325.819 C 285.313 326.833,285.322 326.932,284.726 326.704 C 284.154 326.484,284.180 326.665,284.904 327.923 L 285.754 329.400 284.824 328.600 L 283.894 327.800 284.770 329.600 C 285.625 331.359,285.626 331.377,284.810 330.400 L 283.974 329.400 284.657 330.891 C 285.303 332.301,285.302 332.424,284.644 333.152 C 284.091 333.762,284.055 333.987,284.470 334.243 C 284.843 334.474,284.708 334.633,283.998 334.800 C 282.776 335.089,282.460 336.362,283.433 337.074 C 284.086 337.551,284.090 337.600,283.476 337.600 C 283.059 337.600,282.800 337.917,282.800 338.429 C 282.800 339.182,282.743 339.200,282.171 338.629 C 281.826 338.283,281.390 338.000,281.204 338.000 C 280.501 338.000,279.600 338.501,279.600 338.892 C 279.600 339.121,279.869 339.075,280.217 338.786 C 280.628 338.445,280.967 338.407,281.234 338.674 C 281.501 338.941,281.428 339.245,281.017 339.586 C 280.678 339.868,280.400 339.958,280.400 339.788 C 280.400 339.617,280.056 339.874,279.636 340.359 C 279.216 340.843,278.767 341.070,278.638 340.862 C 278.510 340.654,278.699 340.371,279.060 340.232 C 279.420 340.094,279.622 339.889,279.509 339.776 C 279.396 339.663,278.823 339.789,278.235 340.057 L 277.167 340.544 278.283 341.473 L 279.400 342.402 278.200 341.976 C 277.234 341.633,277.098 341.648,277.500 342.055 C 278.050 342.610,278.188 343.363,277.683 343.051 C 277.509 342.944,277.339 343.217,277.306 343.658 C 277.253 344.351,277.337 344.390,277.923 343.942 C 278.295 343.657,278.152 343.926,277.605 344.539 C 276.554 345.717,276.370 346.549,276.907 347.706 C 277.135 348.197,277.077 348.379,276.717 348.306 C 276.433 348.248,276.248 348.433,276.306 348.717 C 276.379 349.077,276.197 349.135,275.706 348.907 C 274.549 348.370,273.717 348.554,272.539 349.605 C 271.926 350.152,271.657 350.295,271.942 349.923 C 272.390 349.337,272.351 349.253,271.658 349.306 C 271.217 349.339,270.944 349.509,271.051 349.683 C 271.363 350.188,270.610 350.050,270.055 349.500 C 269.648 349.098,269.633 349.234,269.976 350.200 L 270.402 351.400 269.473 350.283 L 268.544 349.167 268.057 350.235 C 267.789 350.823,267.663 351.396,267.776 351.509 C 267.889 351.622,268.094 351.420,268.232 351.060 C 268.371 350.699,268.654 350.510,268.862 350.638 C 269.070 350.767,268.843 351.216,268.359 351.636 C 267.874 352.056,267.617 352.400,267.788 352.400 C 267.958 352.400,267.868 352.678,267.586 353.017 C 267.245 353.428,266.941 353.501,266.674 353.234 C 266.407 352.967,266.445 352.628,266.786 352.217 C 267.075 351.869,267.121 351.600,266.892 351.600 C 266.501 351.600,266.000 352.501,266.000 353.204 C 266.000 353.390,266.283 353.826,266.629 354.171 C 267.200 354.743,267.182 354.800,266.429 354.800 C 265.917 354.800,265.600 355.059,265.600 355.476 C 265.600 356.090,265.551 356.086,265.074 355.433 C 264.362 354.460,263.089 354.776,262.800 355.998 C 262.633 356.708,262.474 356.843,262.243 356.470 C 261.987 356.055,261.762 356.091,261.152 356.644 C 260.424 357.302,260.301 357.303,258.891 356.657 L 257.400 355.974 258.400 356.810 C 259.377 357.626,259.359 357.625,257.600 356.770 L 255.800 355.894 256.600 356.824 L 257.400 357.754 255.923 356.904 C 254.665 356.180,254.484 356.154,254.704 356.726 C 254.932 357.322,254.833 357.313,253.819 356.649 C 253.028 356.131,252.741 356.070,252.887 356.450 C 253.064 356.912,250.226 357.000,235.249 357.000 C 225.432 357.000,216.500 357.129,215.400 357.287 C 213.465 357.565,213.436 357.555,214.500 356.974 C 215.945 356.187,215.966 356.200,213.252 356.200 C 211.539 356.200,210.956 356.335,211.095 356.700 C 211.200 356.975,211.086 357.200,210.843 357.200 C 210.599 357.200,210.400 356.731,210.400 356.157 C 210.400 355.405,210.563 355.177,210.987 355.340 C 211.310 355.464,211.671 355.408,211.790 355.217 C 211.908 355.025,211.779 354.792,211.502 354.699 C 211.109 354.567,211.119 354.386,211.549 353.865 C 212.014 353.301,212.014 353.198,211.549 353.186 C 211.247 353.178,211.447 352.924,211.993 352.622 C 213.053 352.035,214.287 352.387,214.918 353.456 C 215.181 353.900,215.406 353.883,216.201 353.363 C 216.731 353.015,217.398 352.852,217.682 353.000 C 217.967 353.148,217.753 352.906,217.207 352.463 C 216.476 351.869,216.078 351.770,215.697 352.085 C 215.413 352.321,215.065 352.398,214.924 352.257 C 214.782 352.116,214.887 352.000,215.157 352.000 C 215.427 352.000,215.519 351.792,215.362 351.538 C 215.185 351.252,215.252 351.185,215.538 351.362 C 216.274 351.816,216.072 351.142,215.300 350.564 C 214.663 350.087,214.680 350.060,215.495 350.265 C 216.100 350.418,216.471 350.281,216.638 349.845 C 216.774 349.490,217.068 349.200,217.292 349.200 C 217.526 349.200,217.487 349.454,217.200 349.800 C 216.913 350.146,216.874 350.400,217.108 350.400 C 217.856 350.400,218.034 349.113,217.354 348.616 C 216.753 348.176,216.761 348.133,217.447 348.127 C 217.861 348.124,218.328 348.317,218.483 348.557 C 218.682 348.862,218.922 348.836,219.283 348.468 C 219.706 348.038,219.691 347.966,219.200 348.071 C 218.697 348.179,218.600 347.524,218.600 344.000 C 218.600 340.476,218.697 339.821,219.200 339.929 C 219.691 340.034,219.706 339.962,219.283 339.532 C 218.922 339.164,218.682 339.138,218.483 339.443 C 218.328 339.683,217.861 339.876,217.447 339.873 C 216.761 339.867,216.753 339.824,217.354 339.384 C 218.034 338.887,217.856 337.600,217.108 337.600 C 216.874 337.600,216.913 337.854,217.200 338.200 C 217.487 338.546,217.526 338.800,217.292 338.800 C 217.068 338.800,216.774 338.510,216.638 338.155 C 216.471 337.719,216.100 337.582,215.495 337.735 C 214.680 337.940,214.663 337.913,215.300 337.436 C 216.072 336.858,216.274 336.184,215.538 336.638 C 215.252 336.815,215.185 336.748,215.362 336.462 C 215.519 336.208,215.427 336.000,215.157 336.000 C 214.887 336.000,214.782 335.884,214.924 335.743 C 215.065 335.602,215.413 335.679,215.697 335.915 C 216.078 336.230,216.476 336.131,217.207 335.537 C 217.753 335.094,217.967 334.852,217.682 335.000 C 217.398 335.148,216.731 334.985,216.201 334.637 C 215.406 334.117,215.181 334.100,214.918 334.544 C 214.398 335.425,213.021 335.985,212.378 335.578 C 211.980 335.326,211.955 335.210,212.300 335.206 C 212.575 335.203,212.800 334.930,212.800 334.600 C 212.800 333.877,213.267 333.827,213.920 334.480 C 214.293 334.853,214.400 334.809,214.400 334.280 C 214.400 333.906,214.130 333.600,213.800 333.600 C 213.470 333.600,213.200 333.418,213.200 333.197 C 213.200 332.954,212.889 332.987,212.420 333.280 C 211.789 333.674,211.732 333.885,212.120 334.384 C 212.530 334.910,212.508 334.928,211.963 334.503 C 211.613 334.230,211.165 334.140,210.967 334.303 C 210.770 334.467,210.950 334.195,211.366 333.700 C 211.864 333.109,211.951 332.800,211.619 332.800 C 211.304 332.800,211.214 332.538,211.381 332.100 C 211.595 331.539,211.548 331.499,211.144 331.900 C 210.520 332.519,209.600 332.553,209.600 331.957 C 209.600 331.714,209.858 331.614,210.174 331.735 C 210.490 331.856,210.805 331.809,210.874 331.631 C 210.943 331.453,211.990 331.440,213.200 331.603 C 215.823 331.956,216.038 331.865,214.535 331.036 L 213.400 330.410 215.200 330.638 C 216.190 330.764,217.229 330.937,217.508 331.024 C 219.050 331.501,261.347 331.210,261.658 330.720 C 261.888 330.358,261.990 330.473,261.994 331.100 C 261.997 331.595,262.174 332.000,262.387 332.000 C 262.601 332.000,262.686 331.769,262.578 331.486 C 262.458 331.175,262.689 330.971,263.161 330.971 C 263.590 330.971,263.854 331.113,263.747 331.286 C 263.640 331.459,263.743 331.600,263.976 331.600 C 264.209 331.600,264.400 331.384,264.400 331.120 C 264.400 330.747,264.507 330.747,264.880 331.120 C 265.493 331.733,266.138 331.746,265.762 331.138 C 265.576 330.838,265.653 330.786,265.983 330.989 C 266.278 331.172,266.635 331.072,266.839 330.751 C 267.117 330.311,267.189 330.336,267.194 330.876 C 267.197 331.248,267.411 331.683,267.668 331.842 C 267.969 332.028,268.056 331.924,267.912 331.547 C 267.767 331.170,267.958 330.943,268.453 330.906 C 268.873 330.874,269.141 330.973,269.047 331.124 C 268.953 331.276,269.292 331.400,269.800 331.400 C 270.308 331.400,270.657 331.292,270.575 331.159 C 270.493 331.026,270.695 330.576,271.024 330.159 C 271.467 329.596,271.607 329.555,271.564 330.000 C 271.451 331.161,271.604 331.645,272.007 331.396 C 272.230 331.258,272.311 330.979,272.186 330.777 C 272.061 330.575,272.223 330.511,272.547 330.635 C 272.980 330.801,273.108 330.605,273.030 329.892 C 272.941 329.081,273.081 328.941,273.892 329.030 C 274.605 329.108,274.801 328.980,274.635 328.547 C 274.511 328.223,274.575 328.061,274.777 328.186 C 274.979 328.311,275.258 328.230,275.396 328.007 C 275.645 327.604,275.161 327.451,274.000 327.564 C 273.555 327.607,273.596 327.467,274.159 327.024 C 274.576 326.695,275.026 326.493,275.159 326.575 C 275.292 326.657,275.400 326.308,275.400 325.800 C 275.400 325.292,275.276 324.953,275.124 325.047 C 274.973 325.141,274.874 324.873,274.906 324.453 C 274.943 323.958,275.170 323.767,275.547 323.912 C 275.924 324.056,276.028 323.969,275.842 323.668 C 275.683 323.411,275.248 323.197,274.876 323.194 C 274.336 323.189,274.311 323.117,274.751 322.839 C 275.072 322.635,275.172 322.278,274.989 321.983 C 274.786 321.653,274.838 321.576,275.138 321.762 C 275.746 322.138,275.733 321.493,275.120 320.880 C 274.747 320.507,274.747 320.400,275.120 320.400 C 275.384 320.400,275.600 320.209,275.600 319.976 C 275.600 319.743,275.459 319.640,275.286 319.747 C 275.113 319.854,274.971 319.590,274.971 319.161 C 274.971 318.689,275.175 318.458,275.486 318.578 C 275.769 318.686,276.000 318.601,276.000 318.387 C 276.000 318.174,275.595 317.997,275.100 317.994 C 274.498 317.990,274.366 317.882,274.702 317.669 C 275.102 317.415,275.224 292.873,275.302 196.313 C 275.360 124.215,275.254 75.367,275.038 75.500 C 274.838 75.624,274.817 75.497,274.989 75.217 C 275.172 74.922,275.072 74.565,274.751 74.361 C 274.342 74.102,274.432 74.011,275.100 74.006 C 275.595 74.003,276.000 73.837,276.000 73.637 C 276.000 73.438,275.595 73.364,275.100 73.472 C 274.436 73.618,274.345 73.567,274.751 73.279 C 275.071 73.053,275.171 72.676,274.989 72.383 C 274.786 72.053,274.838 71.976,275.138 72.162 C 275.392 72.319,275.600 72.267,275.600 72.047 C 275.600 71.827,275.411 71.531,275.181 71.388 C 274.902 71.216,274.894 70.969,275.158 70.651 C 275.391 70.370,275.411 69.941,275.206 69.610 C 274.975 69.236,275.084 68.874,275.529 68.536 C 276.015 68.166,276.051 68.022,275.657 68.013 C 275.333 68.005,275.210 67.750,275.353 67.379 C 275.484 67.038,275.425 66.861,275.223 66.986 C 275.021 67.111,274.742 67.030,274.604 66.807 C 274.374 66.434,274.915 66.221,275.730 66.363 C 275.911 66.394,275.945 66.235,275.806 66.010 C 275.667 65.784,275.322 65.600,275.041 65.600 C 274.759 65.600,274.323 65.150,274.073 64.600 C 273.701 63.784,273.724 63.600,274.196 63.600 C 274.548 63.600,274.684 63.837,274.543 64.205 C 274.375 64.642,274.494 64.739,274.973 64.555 C 275.881 64.206,274.553 62.667,273.566 62.925 C 273.103 63.046,272.954 62.897,273.075 62.434 C 273.333 61.447,271.794 60.119,271.445 61.027 C 271.261 61.506,271.358 61.625,271.795 61.457 C 272.163 61.316,272.400 61.452,272.400 61.804 C 272.400 62.276,272.216 62.299,271.400 61.927 C 270.850 61.677,270.400 61.241,270.400 60.959 C 270.400 60.678,270.216 60.333,269.990 60.194 C 269.765 60.055,269.606 60.089,269.637 60.270 C 269.779 61.085,269.566 61.626,269.193 61.396 C 268.970 61.258,268.889 60.979,269.014 60.777 C 269.139 60.575,268.962 60.516,268.621 60.647 C 268.250 60.790,267.995 60.667,267.987 60.343 C 267.978 59.949,267.834 59.985,267.464 60.471 C 267.126 60.916,266.764 61.025,266.390 60.794 C 266.059 60.589,265.630 60.609,265.349 60.842 C 265.031 61.106,264.784 61.098,264.612 60.819 C 264.469 60.589,264.173 60.400,263.953 60.400 C 263.733 60.400,263.681 60.608,263.838 60.862 C 264.024 61.162,263.947 61.214,263.617 61.011 C 263.324 60.829,262.947 60.929,262.721 61.249 C 262.433 61.655,262.382 61.564,262.528 60.900 C 262.636 60.405,262.562 60.000,262.363 60.000 C 262.163 60.000,261.997 60.405,261.994 60.900 C 261.989 61.568,261.898 61.658,261.639 61.249 C 261.435 60.928,261.078 60.828,260.783 61.011 C 260.503 61.183,260.376 61.162,260.500 60.962 C 260.758 60.544,139.207 60.643,138.837 61.060 C 138.707 61.208,138.853 61.182,139.162 61.002 C 139.562 60.770,139.632 60.825,139.405 61.193 C 139.165 61.581,138.903 61.472,138.352 60.754 C 137.692 59.897,137.617 59.878,137.609 60.567 C 137.604 60.988,137.482 61.215,137.337 61.070 C 137.192 60.925,136.828 61.011,136.528 61.260 C 136.089 61.624,136.038 61.564,136.266 60.957 C 136.505 60.320,136.454 60.278,135.945 60.690 C 135.527 61.030,135.213 61.053,134.925 60.765 C 134.637 60.477,134.307 60.550,133.854 61.003 C 133.292 61.565,133.200 61.572,133.200 61.052 C 133.200 60.719,133.037 60.346,132.837 60.223 C 132.638 60.100,132.570 60.404,132.687 60.899 C 132.898 61.792,132.894 61.793,132.220 61.000 C 131.847 60.560,131.643 60.406,131.768 60.658 C 131.893 60.910,131.715 61.224,131.372 61.355 C 131.030 61.487,130.851 61.759,130.975 61.960 C 131.099 62.161,130.841 62.231,130.401 62.116 C 129.960 62.001,129.600 61.767,129.600 61.596 C 129.600 61.425,129.321 61.178,128.979 61.047 C 128.623 60.911,128.463 60.978,128.603 61.205 C 128.737 61.422,128.567 61.600,128.224 61.600 C 127.881 61.600,127.600 61.770,127.600 61.977 C 127.600 62.184,127.960 62.285,128.400 62.200 C 128.840 62.115,129.200 62.216,129.200 62.423 C 129.200 62.747,128.751 62.920,128.000 62.886 C 127.497 62.863,126.800 63.975,126.800 64.800 C 126.800 65.020,126.630 65.200,126.423 65.200 C 126.216 65.200,126.115 64.840,126.200 64.400 C 126.285 63.960,126.184 63.600,125.977 63.600 C 125.770 63.600,125.600 63.881,125.600 64.224 C 125.600 64.567,125.422 64.737,125.205 64.603 C 124.978 64.463,124.911 64.623,125.047 64.979 C 125.178 65.321,125.425 65.600,125.596 65.600 C 125.767 65.600,126.001 65.960,126.116 66.401 C 126.231 66.841,126.161 67.099,125.960 66.975 C 125.759 66.851,125.487 67.030,125.355 67.372 C 125.224 67.715,124.910 67.893,124.658 67.768 C 124.406 67.643,124.560 67.847,125.000 68.220 C 125.793 68.894,125.792 68.898,124.899 68.687 C 124.404 68.570,124.100 68.638,124.223 68.837 C 124.346 69.037,124.719 69.200,125.052 69.200 C 125.572 69.200,125.565 69.292,125.003 69.854 C 124.550 70.307,124.477 70.637,124.765 70.925 C 125.053 71.213,125.030 71.527,124.690 71.945 C 124.278 72.454,124.320 72.505,124.957 72.266 C 125.564 72.038,125.624 72.089,125.260 72.528 C 125.011 72.828,124.925 73.192,125.070 73.337 C 125.215 73.482,124.988 73.604,124.567 73.609 C 123.878 73.617,123.897 73.692,124.754 74.352 C 125.472 74.903,125.581 75.165,125.193 75.405 C 124.825 75.632,124.770 75.562,125.002 75.162 C 125.182 74.853,125.209 74.706,125.062 74.835 C 124.646 75.204,124.545 316.757,124.962 316.500 C 125.162 316.376,125.183 316.503,125.011 316.783 C 124.828 317.078,124.928 317.435,125.249 317.639 C 125.658 317.898,125.568 317.989,124.900 317.994 C 124.405 317.997,124.000 318.163,124.000 318.363 C 124.000 318.562,124.405 318.636,124.900 318.528 C 125.564 318.382,125.655 318.433,125.249 318.721 C 124.929 318.947,124.829 319.324,125.011 319.617 C 125.214 319.947,125.162 320.024,124.862 319.838 C 124.608 319.681,124.400 319.733,124.400 319.953 C 124.400 320.173,124.589 320.469,124.819 320.612 C 125.098 320.784,125.106 321.031,124.842 321.349 C 124.609 321.630,124.589 322.059,124.794 322.390 C 125.025 322.764,124.916 323.126,124.471 323.464 C 123.985 323.834,123.949 323.978,124.343 323.987 C 124.667 323.995,124.790 324.250,124.647 324.621 C 124.516 324.962,124.575 325.139,124.777 325.014 C 124.979 324.889,125.258 324.970,125.396 325.193 C 125.626 325.566,125.085 325.779,124.270 325.637 C 124.089 325.606,124.055 325.765,124.194 325.990 C 124.333 326.216,124.678 326.400,124.959 326.400 C 125.241 326.400,125.677 326.850,125.927 327.400 C 126.299 328.216,126.276 328.400,125.804 328.400 C 125.452 328.400,125.316 328.163,125.457 327.795 C 125.625 327.358,125.506 327.261,125.027 327.445 C 124.119 327.794,125.447 329.333,126.434 329.075 C 126.897 328.954,127.046 329.103,126.925 329.566 C 126.667 330.553,128.206 331.881,128.555 330.973 C 128.739 330.494,128.642 330.375,128.205 330.543 C 127.837 330.684,127.600 330.548,127.600 330.196 C 127.600 329.724,127.784 329.701,128.600 330.073 C 129.150 330.323,129.600 330.759,129.600 331.041 C 129.600 331.322,129.784 331.667,130.010 331.806 C 130.235 331.945,130.394 331.911,130.363 331.730 C 130.221 330.915,130.434 330.374,130.807 330.604 C 131.030 330.742,131.111 331.021,130.986 331.223 C 130.861 331.425,131.038 331.484,131.379 331.353 C 131.750 331.210,132.005 331.333,132.013 331.657 C 132.022 332.051,132.166 332.015,132.536 331.529 C 132.874 331.084,133.236 330.975,133.610 331.206 C 133.941 331.411,134.370 331.391,134.651 331.158 C 134.969 330.894,135.216 330.902,135.388 331.181 C 135.531 331.411,135.827 331.600,136.047 331.600 C 136.267 331.600,136.319 331.392,136.162 331.138 C 135.976 330.838,136.053 330.786,136.383 330.989 C 136.676 331.171,137.053 331.071,137.279 330.751 C 137.567 330.345,137.618 330.436,137.472 331.100 C 137.364 331.595,137.438 332.000,137.637 332.000 C 137.837 332.000,138.003 331.595,138.006 331.100 C 138.011 330.432,138.102 330.342,138.361 330.751 C 138.565 331.072,138.922 331.172,139.217 330.989 C 139.497 330.816,139.623 330.838,139.500 331.038 C 139.203 331.518,180.173 331.298,181.944 330.810 L 183.287 330.440 182.544 331.288 C 181.815 332.118,181.817 332.130,182.600 331.841 C 186.322 330.469,189.600 330.393,189.600 331.677 C 189.600 332.338,189.710 332.407,190.164 332.030 C 190.742 331.550,191.562 332.172,191.040 332.693 C 190.908 332.825,190.800 332.713,190.800 332.443 C 190.800 332.173,190.617 332.066,190.393 332.204 C 190.170 332.342,190.089 332.621,190.214 332.823 C 190.339 333.025,190.162 333.084,189.821 332.953 C 189.479 332.822,189.200 332.532,189.200 332.308 C 189.200 332.071,188.956 332.105,188.611 332.391 C 188.093 332.821,188.093 332.950,188.611 333.468 C 189.270 334.127,189.398 334.570,188.828 334.217 C 188.623 334.091,188.342 334.170,188.204 334.393 C 188.066 334.617,188.188 334.805,188.476 334.812 C 189.737 334.841,187.530 335.608,186.015 335.668 C 185.108 335.703,184.267 335.891,184.147 336.086 C 184.027 336.280,183.670 336.224,183.355 335.962 C 183.039 335.700,182.665 335.602,182.524 335.743 C 182.382 335.884,182.477 336.000,182.733 336.000 C 182.990 336.000,183.200 336.199,183.200 336.443 C 183.200 336.698,182.907 336.773,182.509 336.621 C 182.009 336.429,182.085 336.639,182.783 337.382 C 183.499 338.144,183.830 338.279,184.068 337.904 C 184.533 337.171,184.472 337.917,183.994 338.811 C 183.771 339.229,183.339 339.475,183.034 339.358 C 182.730 339.241,182.357 339.346,182.205 339.592 C 182.005 339.915,181.745 339.901,181.264 339.539 C 180.704 339.117,180.678 339.126,181.100 339.599 C 181.785 340.367,181.785 347.633,181.100 348.401 C 180.678 348.874,180.704 348.883,181.264 348.461 C 181.727 348.113,182.010 348.092,182.195 348.391 C 182.341 348.628,182.705 348.771,183.004 348.711 C 183.702 348.569,183.783 348.793,183.432 349.900 C 183.275 350.395,182.888 350.800,182.573 350.800 C 181.874 350.800,181.835 351.275,182.480 351.920 C 183.126 352.566,183.600 352.525,183.600 351.824 C 183.600 351.005,184.385 350.625,184.935 351.176 C 185.289 351.531,185.161 351.824,184.400 352.400 C 183.652 352.966,183.515 353.272,183.855 353.613 C 184.196 353.955,184.387 353.945,184.617 353.573 C 184.815 353.253,184.759 353.178,184.462 353.362 C 184.208 353.519,184.000 353.457,184.000 353.224 C 184.000 352.678,184.676 352.675,185.012 353.219 C 185.192 353.510,185.425 353.511,185.772 353.223 C 186.286 352.796,186.800 353.040,186.800 353.709 C 186.800 353.916,186.559 353.993,186.264 353.880 C 185.719 353.671,184.466 354.222,184.812 354.518 C 185.170 354.825,187.628 353.968,187.408 353.613 C 187.286 353.416,187.398 353.125,187.655 352.966 C 187.948 352.785,188.016 352.850,187.838 353.138 C 187.681 353.392,187.743 353.600,187.976 353.600 C 188.209 353.600,188.400 353.864,188.400 354.187 C 188.400 354.511,188.175 354.720,187.900 354.653 C 187.625 354.586,187.536 354.607,187.702 354.700 C 187.869 354.792,187.905 355.031,187.782 355.230 C 187.659 355.428,187.838 355.484,188.179 355.353 C 188.538 355.215,188.800 355.327,188.800 355.619 C 188.800 355.951,189.109 355.864,189.700 355.366 C 190.195 354.950,190.467 354.770,190.303 354.967 C 190.140 355.165,190.230 355.613,190.503 355.963 C 190.943 356.527,190.919 356.537,190.300 356.051 C 189.695 355.577,189.600 355.591,189.600 356.156 C 189.600 356.805,188.461 356.808,185.300 356.167 C 184.086 355.921,184.166 356.247,185.500 356.974 C 186.564 357.555,186.535 357.565,184.600 357.287 C 183.500 357.129,174.748 357.000,165.151 357.000 C 150.513 357.000,147.736 356.911,147.913 356.450 C 148.061 356.065,147.776 356.123,146.962 356.643 C 146.137 357.171,145.938 357.210,146.278 356.779 C 146.669 356.282,146.620 356.171,146.007 356.171 C 145.596 356.171,145.363 356.341,145.491 356.548 C 145.621 356.757,145.508 356.790,145.235 356.621 C 144.966 356.455,144.848 356.022,144.974 355.660 C 145.111 355.262,144.883 355.376,144.401 355.944 C 143.815 356.635,143.600 356.722,143.600 356.267 C 143.600 355.925,144.000 355.365,144.489 355.023 C 144.978 354.680,145.150 354.400,144.871 354.400 C 144.592 354.400,143.922 354.842,143.382 355.382 C 142.274 356.490,142.242 356.468,142.804 354.991 C 143.186 353.984,143.328 353.936,145.566 354.065 C 146.864 354.139,147.842 354.065,147.739 353.900 C 147.637 353.735,146.676 353.600,145.605 353.600 C 143.074 353.600,142.400 352.926,142.400 350.395 C 142.400 349.324,142.265 348.363,142.100 348.261 C 141.935 348.158,141.861 349.136,141.935 350.434 C 142.065 352.694,142.024 352.811,140.966 353.213 C 139.655 353.711,138.800 353.467,138.800 352.593 C 138.800 352.246,138.305 351.526,137.700 350.993 C 136.635 350.056,136.629 350.025,137.486 350.013 C 137.973 350.006,138.565 350.360,138.800 350.800 C 139.255 351.650,140.191 351.861,140.597 351.205 C 140.742 350.970,140.563 350.916,140.155 351.073 C 139.653 351.265,139.556 351.194,139.796 350.806 C 139.982 350.506,139.967 350.372,139.762 350.496 C 139.312 350.769,138.350 349.784,138.712 349.421 C 138.857 349.276,138.648 349.283,138.247 349.437 C 137.799 349.609,137.383 349.502,137.166 349.158 C 136.913 348.759,136.811 348.743,136.806 349.100 C 136.803 349.375,136.530 349.600,136.200 349.600 C 135.870 349.600,135.597 349.375,135.594 349.100 C 135.590 348.782,135.481 348.749,135.294 349.009 C 134.462 350.167,131.600 351.494,131.600 350.722 C 131.600 350.498,131.915 350.424,132.300 350.558 C 132.967 350.790,132.967 350.776,132.300 350.257 C 131.915 349.957,131.600 349.507,131.600 349.256 C 131.600 348.664,130.929 348.668,130.562 349.262 C 130.402 349.520,130.451 349.616,130.672 349.479 C 130.889 349.345,131.067 349.497,131.067 349.818 C 131.067 350.630,130.682 350.544,130.093 349.600 C 129.769 349.082,129.136 348.789,128.297 348.768 C 127.583 348.751,127.225 348.646,127.499 348.535 C 127.809 348.410,127.906 347.965,127.755 347.362 C 127.620 346.827,127.698 346.164,127.927 345.888 C 128.229 345.524,128.086 345.139,127.403 344.481 C 126.834 343.933,126.362 343.739,126.207 343.988 C 125.883 344.513,124.524 344.524,124.203 344.005 C 124.068 343.787,124.209 343.705,124.515 343.823 C 124.821 343.940,125.278 343.788,125.530 343.485 C 125.883 343.060,125.855 342.933,125.411 342.933 C 125.094 342.933,124.947 343.114,125.083 343.335 C 125.230 343.572,125.065 343.634,124.678 343.485 C 124.319 343.348,123.919 343.407,123.789 343.617 C 123.659 343.828,123.356 344.000,123.114 344.000 C 122.873 344.000,122.972 343.672,123.335 343.272 C 123.949 342.593,123.939 342.485,123.181 341.672 C 122.658 341.110,122.552 340.798,122.884 340.794 C 123.249 340.790,123.224 340.674,122.800 340.400 C 122.251 340.045,122.521 339.822,123.330 339.963 C 123.511 339.994,123.527 339.806,123.366 339.545 C 123.161 339.213,122.852 339.343,122.336 339.979 L 121.600 340.889 121.538 339.944 C 121.504 339.425,121.510 338.595,121.553 338.100 C 121.595 337.605,121.443 337.200,121.215 337.200 C 120.987 337.200,120.821 337.335,120.847 337.500 C 120.954 338.172,120.777 338.433,120.381 338.188 C 120.096 338.012,120.120 337.737,120.455 337.334 C 120.851 336.857,120.835 336.669,120.378 336.386 C 119.906 336.095,119.898 335.943,120.332 335.517 C 120.761 335.094,120.834 335.100,120.729 335.550 C 120.658 335.852,120.825 336.182,121.100 336.283 C 121.938 336.591,121.659 335.795,120.608 334.882 C 120.060 334.405,119.341 334.124,119.003 334.254 C 118.666 334.384,118.088 334.244,117.718 333.945 C 117.255 333.569,117.140 333.555,117.347 333.900 C 117.719 334.519,116.834 334.556,116.000 333.956 C 115.476 333.580,115.481 333.550,116.033 333.724 C 116.390 333.837,116.667 333.695,116.667 333.400 C 116.667 333.112,116.428 332.968,116.137 333.080 C 115.394 333.365,114.949 332.004,115.642 331.566 C 116.081 331.288,116.040 331.211,115.451 331.206 C 114.798 331.201,114.773 331.113,115.251 330.525 C 115.737 329.927,115.711 329.884,115.022 330.142 C 114.264 330.427,114.263 330.414,114.984 329.617 C 115.477 329.073,115.553 328.800,115.213 328.800 C 114.799 328.800,114.799 328.683,115.214 328.183 C 115.616 327.699,115.622 327.462,115.239 327.083 C 114.858 326.704,114.809 326.773,115.014 327.400 C 115.211 328.004,115.177 328.062,114.875 327.636 C 114.373 326.931,114.725 325.909,115.342 326.279 C 115.594 326.430,115.530 326.215,115.200 325.802 C 114.651 325.114,114.664 325.074,115.357 325.334 C 115.968 325.564,116.025 325.512,115.655 325.067 C 115.153 324.462,114.960 75.513,115.461 74.702 C 115.605 74.468,115.552 74.383,115.342 74.512 C 115.119 74.650,114.960 73.932,114.960 72.792 C 114.960 71.090,115.040 70.898,115.573 71.317 C 116.053 71.695,116.036 71.565,115.493 70.714 C 114.632 69.366,114.631 69.200,115.476 69.200 C 116.066 69.200,116.054 69.125,115.376 68.613 C 114.686 68.091,114.676 68.024,115.287 68.013 C 115.732 68.004,115.893 67.788,115.745 67.400 C 115.618 67.070,115.720 66.800,115.971 66.800 C 116.281 66.800,116.309 66.575,116.057 66.100 C 115.800 65.616,115.858 65.241,116.243 64.884 C 116.706 64.456,116.800 64.507,116.800 65.184 C 116.800 65.633,116.980 66.000,117.200 66.000 C 117.420 66.000,117.555 66.162,117.500 66.360 C 117.445 66.558,117.580 66.693,117.800 66.660 C 118.020 66.627,118.162 66.485,118.115 66.344 C 118.068 66.203,118.473 66.003,119.015 65.899 C 119.557 65.796,120.000 65.896,120.000 66.122 C 120.000 66.348,120.107 66.426,120.238 66.295 C 120.648 65.886,119.971 63.640,119.473 63.757 C 119.213 63.819,119.136 63.793,119.302 63.700 C 119.469 63.608,119.486 63.339,119.341 63.104 C 119.184 62.851,119.265 62.793,119.538 62.962 C 119.792 63.119,120.000 63.072,120.000 62.857 C 120.000 62.642,119.865 62.391,119.700 62.299 C 119.535 62.207,119.625 62.186,119.900 62.253 C 120.175 62.320,120.400 62.206,120.400 62.000 C 120.400 61.794,120.647 61.720,120.948 61.836 C 121.629 62.097,122.198 60.769,121.571 60.382 C 121.240 60.177,121.236 60.025,121.557 59.826 C 121.801 59.676,122.000 59.167,122.000 58.696 C 122.000 58.030,122.107 57.947,122.480 58.320 C 123.062 58.902,124.550 58.966,124.196 58.393 C 124.058 58.170,123.822 58.061,123.672 58.151 C 123.523 58.242,123.140 58.035,122.821 57.691 C 122.310 57.138,122.333 57.088,123.021 57.257 C 123.460 57.364,124.105 57.132,124.500 56.724 C 125.079 56.125,125.096 56.000,124.600 56.000 C 124.270 56.000,124.000 55.734,124.000 55.410 C 124.000 54.942,124.212 54.900,125.026 55.210 C 127.544 56.167,127.968 55.620,127.138 52.480 C 127.062 52.194,127.592 51.705,128.316 51.393 C 129.266 50.983,129.563 50.961,129.386 51.313 C 129.251 51.581,129.383 51.506,129.680 51.147 C 130.031 50.722,130.774 50.512,131.810 50.547 C 133.338 50.598,134.090 48.956,132.762 48.467 C 132.062 48.209,132.409 47.677,133.150 47.871 C 133.562 47.979,133.877 48.348,133.850 48.691 C 133.822 49.033,134.025 49.393,134.300 49.490 C 134.575 49.587,134.800 49.461,134.800 49.210 C 134.800 48.958,134.592 48.881,134.338 49.038 C 134.035 49.226,133.986 49.147,134.195 48.807 C 134.436 48.418,134.685 48.517,135.206 49.208 C 136.054 50.332,137.407 50.035,137.083 48.795 C 136.968 48.358,137.038 48.000,137.237 48.000 C 137.437 48.000,137.600 47.784,137.600 47.520 C 137.600 47.147,137.493 47.147,137.120 47.520 C 136.477 48.163,135.200 48.132,135.200 47.472 C 135.200 46.548,137.047 45.209,137.592 45.739 C 137.953 46.089,138.036 46.056,137.936 45.600 C 137.864 45.270,137.984 44.966,138.203 44.923 C 138.421 44.881,138.575 45.104,138.545 45.419 C 138.515 45.734,138.666 45.883,138.880 45.751 C 139.094 45.618,139.185 45.186,139.081 44.789 C 138.955 44.305,139.173 43.983,139.746 43.808 C 140.275 43.646,140.410 43.468,140.100 43.340 C 139.825 43.226,139.600 42.946,139.600 42.718 C 139.600 42.445,139.785 42.455,140.137 42.748 C 140.432 42.993,140.821 43.060,141.001 42.897 M95.316 46.000 C 95.201 46.440,94.978 46.800,94.820 46.800 C 94.662 46.800,94.533 47.071,94.533 47.402 C 94.533 47.926,94.623 47.922,95.230 47.372 C 95.868 46.796,95.964 46.804,96.352 47.471 C 96.585 47.872,96.781 47.986,96.788 47.724 C 96.795 47.462,96.611 47.131,96.381 46.988 C 96.090 46.808,96.089 46.575,96.377 46.228 C 96.606 45.952,96.675 45.608,96.530 45.463 C 96.038 44.971,95.526 45.198,95.316 46.000 M135.784 46.827 C 135.639 47.061,135.616 47.349,135.733 47.467 C 136.020 47.753,136.800 47.248,136.800 46.776 C 136.800 46.265,136.109 46.299,135.784 46.827 M267.462 47.017 C 267.592 47.357,267.591 47.742,267.459 47.874 C 267.113 48.220,265.967 47.177,266.228 46.755 C 266.569 46.202,267.201 46.337,267.462 47.017 M94.400 48.770 C 94.933 49.152,94.933 49.244,94.400 49.594 C 93.891 49.928,93.911 49.989,94.529 49.994 C 95.409 50.001,95.300 48.748,94.400 48.503 C 93.867 48.357,93.867 48.387,94.400 48.770 M136.708 49.125 C 136.795 49.386,136.582 49.600,136.233 49.600 C 135.885 49.600,135.600 49.315,135.600 48.967 C 135.600 48.260,136.461 48.383,136.708 49.125 M265.803 49.595 C 265.656 49.833,265.846 49.883,266.279 49.721 C 266.937 49.474,266.948 49.518,266.400 50.225 C 265.846 50.941,265.853 50.959,266.496 50.455 C 266.878 50.155,267.093 49.750,266.972 49.555 C 266.681 49.084,266.106 49.104,265.803 49.595 M128.987 53.214 C 128.302 53.972,128.298 54.064,128.925 54.614 C 129.295 54.938,129.418 54.986,129.199 54.721 C 128.606 54.005,128.716 53.433,129.347 53.956 C 129.761 54.299,130.005 54.275,130.352 53.858 C 131.185 52.855,129.873 52.235,128.987 53.214 M127.021 53.667 C 127.355 54.717,126.708 55.352,125.647 55.015 C 125.000 54.810,124.635 53.253,125.170 52.985 C 125.809 52.666,126.822 53.038,127.021 53.667 M125.380 53.941 C 125.497 54.742,126.600 54.829,126.600 54.038 C 126.600 53.729,126.304 53.433,125.941 53.380 C 125.529 53.319,125.319 53.529,125.380 53.941 M92.617 53.972 C 92.344 54.414,92.975 54.892,93.344 54.522 C 93.725 54.142,93.654 53.600,93.224 53.600 C 93.017 53.600,92.744 53.768,92.617 53.972 M125.067 57.125 C 124.569 57.677,124.523 57.963,124.876 58.316 C 125.571 59.011,126.583 58.103,125.956 57.347 C 125.388 56.662,126.044 56.626,126.801 57.300 C 127.278 57.725,127.282 57.696,126.832 57.100 C 126.164 56.218,125.885 56.222,125.067 57.125 M278.800 60.904 C 278.800 61.255,278.485 61.624,278.100 61.724 C 277.444 61.896,277.445 61.910,278.113 61.954 C 278.836 62.001,279.506 60.973,279.049 60.516 C 278.912 60.379,278.800 60.553,278.800 60.904 M120.400 63.200 C 120.400 63.640,120.574 64.000,120.787 64.000 C 121.001 64.000,121.059 63.699,120.918 63.331 C 120.721 62.818,120.822 62.723,121.351 62.926 C 121.762 63.084,121.943 63.031,121.797 62.795 C 121.364 62.095,120.400 62.375,120.400 63.200 M119.660 65.000 C 119.660 65.209,119.466 65.444,119.230 65.523 C 118.993 65.602,118.800 65.367,118.800 65.000 C 118.800 64.633,118.993 64.398,119.230 64.477 C 119.466 64.556,119.660 64.791,119.660 65.000 M307.082 70.500 C 306.987 70.995,306.909 70.590,306.909 69.600 C 306.909 68.610,306.987 68.205,307.082 68.700 C 307.178 69.195,307.178 70.005,307.082 70.500 M252.800 196.001 L 252.800 308.803 200.000 308.797 L 147.200 308.791 147.200 195.996 L 147.200 83.200 200.000 83.200 L 252.800 83.200 252.800 196.001 M307.082 331.300 C 306.987 331.795,306.909 331.390,306.909 330.400 C 306.909 329.410,306.987 329.005,307.082 329.500 C 307.178 329.995,307.178 330.805,307.082 331.300 M186.977 331.367 C 186.364 331.815,186.434 331.856,187.538 331.694 C 188.943 331.488,189.059 331.385,188.239 331.070 C 187.930 330.952,187.362 331.085,186.977 331.367 M186.755 332.777 C 186.512 333.457,187.237 335.192,187.767 335.197 C 187.968 335.199,188.015 335.082,187.870 334.937 C 187.725 334.792,187.807 334.432,188.052 334.137 C 188.393 333.727,188.351 333.600,187.878 333.600 C 187.538 333.600,187.192 333.285,187.110 332.900 C 186.995 332.354,186.917 332.327,186.755 332.777 M185.784 334.427 C 185.639 334.661,185.616 334.949,185.733 335.067 C 186.020 335.353,186.800 334.848,186.800 334.376 C 186.800 333.865,186.109 333.899,185.784 334.427 M119.600 335.600 C 119.600 336.040,119.426 336.400,119.213 336.400 C 118.999 336.400,118.929 336.130,119.055 335.800 C 119.369 334.983,118.816 335.042,118.122 335.900 C 117.611 336.532,117.598 336.512,117.992 335.700 C 118.533 334.585,119.600 334.518,119.600 335.600 M281.612 335.500 C 281.605 335.775,281.465 335.955,281.300 335.900 C 281.135 335.845,280.955 335.935,280.900 336.100 C 280.670 336.791,280.839 336.866,281.465 336.349 C 282.035 335.878,282.101 335.885,281.925 336.400 C 281.812 336.730,281.341 336.987,280.879 336.970 C 280.418 336.954,280.131 337.089,280.243 337.270 C 281.030 338.543,282.801 337.023,282.046 335.724 C 281.814 335.326,281.619 335.225,281.612 335.500 M284.000 335.606 C 283.467 335.956,283.467 336.048,284.000 336.430 C 284.533 336.813,284.533 336.843,284.000 336.697 C 283.100 336.452,282.991 335.199,283.871 335.206 C 284.489 335.211,284.509 335.272,284.000 335.606 M182.256 337.878 C 181.805 338.328,181.981 338.800,182.600 338.800 C 182.930 338.800,183.200 338.631,183.200 338.424 C 183.200 337.919,182.575 337.558,182.256 337.878 M183.115 344.137 C 182.965 349.193,182.237 349.399,182.084 344.430 C 181.960 340.404,182.157 339.197,182.828 339.868 C 183.059 340.099,183.182 341.915,183.115 344.137 M182.548 344.000 C 182.548 346.310,182.614 347.255,182.695 346.100 C 182.776 344.945,182.776 343.055,182.695 341.900 C 182.614 340.745,182.548 341.690,182.548 344.000 M306.588 344.820 C 306.207 345.435,306.728 345.832,307.242 345.318 C 307.529 345.031,307.536 344.807,307.262 344.639 C 307.039 344.500,306.735 344.582,306.588 344.820 M126.978 345.164 C 127.519 346.041,126.770 346.769,126.047 346.069 C 125.593 345.630,125.501 345.299,125.778 345.106 C 126.347 344.710,126.708 344.727,126.978 345.164 M125.733 346.794 C 126.286 347.450,126.828 347.806,126.939 347.584 C 127.057 347.347,127.107 347.362,127.060 347.620 C 127.016 347.862,126.856 348.040,126.705 348.015 C 126.267 347.942,124.026 345.600,124.395 345.600 C 124.579 345.600,125.181 346.137,125.733 346.794 M128.442 346.549 C 127.931 347.166,128.251 348.400,128.923 348.400 C 129.215 348.400,129.201 348.241,128.880 347.920 C 128.336 347.376,128.225 346.644,128.733 346.959 C 128.917 347.072,129.067 346.903,129.067 346.582 C 129.067 345.864,129.013 345.861,128.442 346.549 M182.077 349.630 C 182.156 349.867,182.391 350.060,182.600 350.060 C 182.809 350.060,183.044 349.867,183.123 349.630 C 183.202 349.394,182.967 349.200,182.600 349.200 C 182.233 349.200,181.998 349.394,182.077 349.630 M136.370 350.564 C 137.115 351.461,136.191 351.674,135.391 350.791 C 134.789 350.125,134.773 350.000,135.289 350.000 C 135.626 350.000,136.113 350.254,136.370 350.564 M140.888 351.607 C 140.585 352.093,140.164 352.284,139.749 352.125 C 139.306 351.955,139.149 352.048,139.270 352.411 C 139.587 353.362,140.330 353.278,141.029 352.212 C 141.403 351.642,141.632 351.099,141.539 351.006 C 141.446 350.913,141.153 351.183,140.888 351.607 M264.970 352.879 C 264.987 353.341,264.730 353.812,264.400 353.925 C 263.898 354.097,263.885 354.027,264.319 353.501 C 264.668 353.078,264.701 352.786,264.419 352.612 C 264.023 352.367,263.846 352.628,263.953 353.300 C 263.979 353.465,263.775 353.605,263.500 353.612 C 263.225 353.619,263.326 353.814,263.724 354.046 C 265.023 354.801,266.543 353.030,265.270 352.243 C 265.089 352.131,264.954 352.418,264.970 352.879 M212.130 353.063 C 212.275 353.208,212.224 353.530,212.017 353.780 C 211.766 354.081,211.901 354.396,212.420 354.720 C 212.889 355.013,213.200 355.046,213.200 354.803 C 213.200 354.582,213.483 354.400,213.829 354.400 C 214.202 354.400,214.406 354.128,214.329 353.733 C 214.181 352.970,213.200 352.498,213.200 353.190 C 213.200 353.442,213.408 353.519,213.662 353.362 C 213.948 353.185,214.015 353.252,213.838 353.538 C 213.433 354.194,212.800 354.110,212.800 353.400 C 212.800 353.070,212.590 352.800,212.333 352.800 C 212.077 352.800,211.985 352.918,212.130 353.063 M97.036 353.960 C 96.622 354.418,96.507 354.819,96.746 354.967 C 97.163 355.224,97.313 355.061,97.726 353.900 C 98.045 353.004,97.889 353.017,97.036 353.960 M264.697 356.000 C 264.843 356.533,264.813 356.533,264.430 356.000 C 264.048 355.467,263.956 355.467,263.606 356.000 C 263.272 356.509,263.211 356.489,263.206 355.871 C 263.199 354.991,264.452 355.100,264.697 356.000 M100.668 357.767 C 100.548 358.079,100.709 358.433,101.025 358.554 C 101.405 358.700,101.600 358.508,101.600 357.987 C 101.600 357.077,100.988 356.932,100.668 357.767 M294.956 364.870 C 294.821 365.090,294.898 365.458,295.128 365.688 C 295.650 366.210,296.922 365.765,296.712 365.135 C 296.512 364.536,295.278 364.350,294.956 364.870 M294.313 367.056 C 294.410 367.562,294.784 368.206,295.144 368.488 C 295.732 368.947,295.742 368.926,295.237 368.283 C 294.823 367.756,294.792 367.448,295.120 367.120 C 295.448 366.792,295.756 366.823,296.283 367.237 C 296.926 367.742,296.947 367.732,296.488 367.144 C 295.609 366.019,294.103 365.958,294.313 367.056 M292.711 367.079 C 292.362 367.768,292.629 368.600,293.200 368.600 C 293.901 368.600,294.019 367.140,293.337 366.912 C 293.082 366.827,292.800 366.902,292.711 367.079 M120.518 375.069 C 120.314 375.601,120.419 375.679,121.031 375.446 C 121.648 375.211,121.701 375.252,121.300 375.656 C 120.707 376.254,119.739 375.546,120.178 374.835 C 120.590 374.169,120.806 374.318,120.518 375.069 M122.830 376.910 C 122.781 377.388,122.232 377.296,122.060 376.780 C 121.972 376.516,122.116 376.372,122.380 376.460 C 122.644 376.548,122.846 376.750,122.830 376.910 M268.617 378.772 C 268.344 379.214,268.975 379.692,269.344 379.322 C 269.725 378.942,269.654 378.400,269.224 378.400 C 269.017 378.400,268.744 378.568,268.617 378.772 M272.460 378.780 C 272.632 379.296,273.181 379.388,273.230 378.910 C 273.247 378.750,273.044 378.548,272.780 378.460 C 272.516 378.372,272.372 378.516,272.460 378.780 M259.300 379.082 C 258.805 379.178,257.995 379.178,257.500 379.082 C 257.005 378.987,257.410 378.909,258.400 378.909 C 259.390 378.909,259.795 378.987,259.300 379.082 " stroke="none" fill="#ffd966" fill-rule="evenodd"></path><path id="path1" d="" stroke="none" fill="#100b404" fill-rule="evenodd"></path><path id="path2" d="" stroke="none" fill="#100b404" fill-rule="evenodd"></path><path id="path3" d="" stroke="none" fill="#100b404" fill-rule="evenodd"></path><path id="path4" d="" stroke="none" fill="#100b404" fill-rule="evenodd"></path></g></svg>